<svg width="150" height="150" viewBox="0 0 150 150" fill="none" xmlns="http://www.w3.org/2000/svg">
<path d="M135.85 60.7891L142.693 43.7011C142.962 43.0506 142.937 42.3 142.644 41.6745C142.351 41.0491 141.789 40.5487 141.129 40.3485L123.803 35.1946L122.727 16.7555C122.678 16.055 122.361 15.4045 121.823 14.9541C121.285 14.5038 120.577 14.3287 119.892 14.4287L102.102 17.431L93.3285 1.29371C92.9863 0.668232 92.4242 0.242907 91.74 0.0677737C91.0802 -0.10736 90.347 0.0677739 89.785 0.46808L75.0489 11.1262L60.3128 0.46808C59.7507 0.0677739 59.042 -0.0823409 58.3578 0.0677737C57.6735 0.217888 57.1114 0.668232 56.7693 1.29371L47.9961 17.431L30.2053 14.4037C29.5455 14.2786 28.8368 14.4788 28.2747 14.9291C27.737 15.3795 27.3949 16.03 27.3705 16.7305L26.2952 35.1696L8.96872 40.3235C8.3089 40.5237 7.74682 40.999 7.45357 41.6495C7.16031 42.3 7.13587 43.0256 7.40469 43.6761L14.2473 60.7641L0.806452 73.1486C0.293255 73.6239 0 74.2995 0 75C0 75.7005 0.293255 76.3761 0.806452 76.8514L14.1984 89.2109L7.35582 106.299C7.087 106.949 7.11144 107.7 7.40469 108.325C7.69795 108.951 8.26002 109.451 8.91984 109.651L26.2463 114.805L27.3216 133.244C27.3705 133.945 27.6882 134.596 28.2258 135.046C28.7634 135.496 29.4721 135.671 30.1564 135.571L47.9472 132.569L56.7204 148.706C57.0626 149.332 57.6246 149.757 58.3089 149.932C58.9687 150.107 59.7019 149.932 60.2639 149.532L75 138.874L89.7361 149.532C90.1515 149.832 90.6403 149.982 91.1535 149.982C91.3245 149.982 91.52 149.982 91.6911 149.907C92.3754 149.757 92.9374 149.307 93.2796 148.681L102.053 132.544L119.844 135.571C120.503 135.696 121.212 135.496 121.774 135.046C122.312 134.596 122.654 133.945 122.678 133.244L123.754 114.805L141.08 109.651C141.74 109.451 142.302 108.976 142.595 108.325C142.889 107.675 142.913 106.949 142.644 106.299L135.802 89.2109L149.194 76.8514C149.707 76.3761 150 75.7005 150 75C150 74.2995 149.707 73.6239 149.194 73.1486L135.802 60.7891H135.85ZM131.305 86.6839C130.547 87.3845 130.279 88.5103 130.694 89.4861L137.17 105.623L120.797 110.502C119.795 110.802 119.11 111.703 119.037 112.754L118.011 130.167L101.197 127.315C100.171 127.14 99.1691 127.64 98.6559 128.566L90.3715 143.803L76.4418 133.745C76.0264 133.445 75.5376 133.295 75.0244 133.295C74.5112 133.295 74.0469 133.445 73.607 133.745L59.6774 143.803L51.393 128.566C50.9042 127.64 49.8778 127.14 48.8514 127.315L32.0381 130.167L31.0117 112.754C30.9384 111.703 30.2542 110.802 29.2522 110.502L12.9032 105.623L19.3548 89.4861C19.7458 88.5103 19.5015 87.3845 18.7439 86.6839L6.08504 75L18.7439 63.3161C19.5015 62.6155 19.7703 61.4897 19.3548 60.5139L12.8788 44.3766L29.2522 39.4979C30.2542 39.1977 30.9384 38.297 31.0117 37.2462L32.0381 19.8329L48.8514 22.685C49.8778 22.8852 50.8798 22.3598 51.393 21.4341L59.6774 6.19746L73.607 16.2551C74.4624 16.8556 75.5865 16.8556 76.4174 16.2551L90.347 6.19746L98.6315 21.4341C99.1447 22.3598 100.147 22.8602 101.173 22.685L117.986 19.8329L119.013 37.2462C119.086 38.297 119.77 39.1977 120.772 39.4979L137.121 44.3766L130.67 60.5139C130.279 61.4897 130.523 62.6155 131.281 63.3161L143.939 75L131.281 86.6839H131.305Z" fill="#1485C1"/>
<path d="M75.0253 24.9617C48.0702 24.9617 26.1494 47.4038 26.1494 74.9999C26.1494 82.7808 27.9334 90.1114 31.037 96.6664V97.5171H31.428C39.4925 113.805 55.9881 125.038 75.0253 125.038C101.98 125.038 123.901 102.596 123.901 74.9999C123.901 47.4038 101.98 24.9617 75.0253 24.9617ZM31.037 74.9999C31.037 72.4479 31.3058 69.946 31.6968 67.4942H50.5873V92.5133H34.5072C32.2833 87.1342 31.037 81.2046 31.037 74.9999ZM75.0253 120.034C58.7985 120.034 44.6 110.952 36.9999 97.5171H53.0311C54.082 97.5171 54.9617 96.8416 55.3039 95.8908L56.5013 96.6664C59.8249 98.8681 63.6616 100.019 67.6206 100.019H94.0869C99.7565 100.019 104.351 95.3154 104.351 89.536V70.0711C104.351 65.0423 100.343 60.9391 95.4065 60.9391H82.821C81.9412 60.9391 81.2081 60.2136 81.2081 59.3129V47.5289C81.2081 43.3507 77.8845 39.9731 73.8034 39.9731H70.8708C66.7897 39.9731 63.4661 43.3757 63.4661 47.5289V57.8368C63.4661 59.9884 62.0243 61.8899 59.9715 62.4403L55.1328 63.7413C54.7174 62.9907 53.9598 62.4403 53.0311 62.4403H32.7965C38.0996 43.676 55.0106 29.9155 75.0253 29.9155C99.2677 29.9155 119.014 50.1309 119.014 74.9498C119.014 99.7688 99.2677 119.984 75.0253 119.984V120.034ZM82.821 65.943H95.4065C97.6304 65.943 99.4143 67.7443 99.4632 69.9961H87.2442V74.9999H99.4632V77.5018H87.2442V82.5056H99.4632V85.0075H87.2442V90.0113H99.4143C99.1699 92.8135 96.8972 95.0152 94.0869 95.0152H67.6206C64.6147 95.0152 61.6822 94.1395 59.1651 92.4632L55.4994 90.0364V68.8702L61.2423 67.319C65.4212 66.1681 68.3537 62.2902 68.3537 57.8618V47.5539C68.3537 46.1529 69.4779 45.002 70.8708 45.002H73.8034C75.1963 45.002 76.3205 46.1529 76.3205 47.5539V59.3379C76.3205 62.9907 79.2286 65.968 82.821 65.968V65.943Z" fill="#1485C1"/>
</svg>
