<svg width="152" height="117" viewBox="0 0 152 117" fill="none" xmlns="http://www.w3.org/2000/svg">
<path d="M150.395 45.0317L131.04 23.3484C130.813 23.0942 130.534 22.8906 130.221 22.7512C129.908 22.6118 129.569 22.5397 129.226 22.5397H97.7742V3.3933C97.7742 2.75856 97.5193 2.14981 97.0656 1.70098C96.6119 1.25215 95.9965 1 95.3548 1H3.41935C2.7777 1 2.16233 1.25215 1.70861 1.70098C1.2549 2.14981 1 2.75856 1 3.3933V96.732C1 97.3668 1.2549 97.9755 1.70861 98.4243C2.16233 98.8732 2.7777 99.1253 3.41935 99.1253H13.2661C13.851 103.751 16.1236 108.006 19.6567 111.092C23.1898 114.177 27.7402 115.879 32.4528 115.879C37.1655 115.879 41.7159 114.177 45.249 111.092C48.7821 108.006 51.0546 103.751 51.6395 99.1253H102.782C103.367 103.751 105.64 108.006 109.173 111.092C112.706 114.177 117.256 115.879 121.969 115.879C126.682 115.879 131.232 114.177 134.765 111.092C138.298 108.006 140.571 103.751 141.156 99.1253H148.581C149.222 99.1253 149.838 98.8732 150.291 98.4243C150.745 97.9755 151 97.3668 151 96.732V46.6163C151 46.0329 150.785 45.4696 150.395 45.0317ZM34.871 5.7866H63.9032V38.5133L50.051 34.5986C49.6171 34.4754 49.157 34.4754 48.7232 34.5986L34.871 38.5133V5.7866ZM32.4516 111.092C29.5806 111.092 26.774 110.25 24.3869 108.672C21.9997 107.094 20.1392 104.851 19.0405 102.227C17.9418 99.6034 17.6543 96.7161 18.2144 93.9305C18.7745 91.145 20.157 88.5863 22.1872 86.5781C24.2173 84.5698 26.8038 83.2022 29.6197 82.6481C32.4355 82.0941 35.3542 82.3784 38.0067 83.4653C40.6592 84.5521 42.9263 86.3927 44.5213 88.7541C46.1164 91.1156 46.9677 93.8919 46.9677 96.732C46.9635 100.539 45.4328 104.189 42.7114 106.881C39.99 109.573 36.3002 111.088 32.4516 111.092ZM92.9355 24.933V94.3387H51.6552C51.619 94.0515 51.5561 93.7732 51.5072 93.4901C51.4636 93.239 51.4293 92.9855 51.3758 92.7378C51.2921 92.3489 51.1842 91.9698 51.0768 91.5891C51.0194 91.3856 50.974 91.1772 50.9098 90.9766C50.7274 90.4046 50.5197 89.8442 50.2866 89.2953C50.2721 89.2616 50.2542 89.23 50.2397 89.1965C50.0139 88.6784 49.7669 88.1721 49.4986 87.6774C49.3997 87.4958 49.2852 87.3244 49.1805 87.1464C48.9831 86.8113 48.7861 86.4746 48.5691 86.1519C48.4351 85.9528 48.2875 85.7647 48.1465 85.5711C47.9377 85.2839 47.7296 84.9967 47.5053 84.7234C47.3447 84.5267 47.1729 84.3405 47.0048 84.149C46.7793 83.8946 46.5536 83.6414 46.3152 83.3989C46.1323 83.2127 45.9417 83.0356 45.7515 82.8571C45.5077 82.6283 45.2619 82.4024 45.0064 82.187C44.8044 82.0161 44.5975 81.8519 44.3882 81.6899C44.1265 81.4857 43.8606 81.2878 43.5879 81.0971C43.3698 80.9448 43.1489 80.7971 42.925 80.6538C42.6434 80.4736 42.3569 80.3025 42.0656 80.1366C41.8346 80.0052 41.6031 79.8758 41.366 79.7537C41.0648 79.5984 40.7573 79.4553 40.4466 79.3152C40.2061 79.2068 39.9671 79.0975 39.7208 78.9986C39.3966 78.8679 39.0654 78.7535 38.7327 78.6396C38.4886 78.5563 38.2474 78.4687 37.999 78.395C37.6455 78.2902 37.2843 78.2057 36.9228 78.1208C36.684 78.0647 36.4491 78.0011 36.2069 77.9532C35.8029 77.874 35.3906 77.8206 34.9779 77.767C34.7694 77.7397 34.5649 77.7005 34.3542 77.6799C33.7285 77.6201 33.0942 77.5856 32.4516 77.5856C31.809 77.5856 31.1747 77.6201 30.5478 77.6813C30.3371 77.7019 30.1327 77.7412 29.9241 77.7685C29.5114 77.8221 29.0991 77.8754 28.6951 77.9547C28.4531 78.0025 28.218 78.0667 27.9792 78.1222C27.6177 78.2072 27.2565 78.2916 26.9031 78.3965C26.6546 78.4702 26.4134 78.5578 26.1693 78.6411C25.8366 78.7545 25.5054 78.8689 25.1812 79C24.9356 79.0989 24.6973 79.2083 24.4554 79.3167C24.1452 79.4567 23.8377 79.5998 23.5361 79.7551C23.299 79.8774 23.0674 80.0069 22.8364 80.1381C22.546 80.3039 22.2586 80.475 21.977 80.6553C21.7525 80.7989 21.5315 80.9466 21.3141 81.0985C21.0415 81.29 20.7756 81.4872 20.5138 81.6913C20.3045 81.8538 20.0977 82.0175 19.8956 82.1884C19.6402 82.4038 19.3944 82.6297 19.1505 82.8585C18.9603 83.0371 18.7697 83.2142 18.5868 83.4004C18.3485 83.6428 18.1227 83.896 17.8973 84.1504C17.7279 84.3419 17.5573 84.5276 17.3967 84.7248C17.1724 84.9993 16.9644 85.2861 16.7556 85.5725C16.6145 85.7662 16.4669 85.9543 16.3329 86.1534C16.1152 86.476 15.919 86.812 15.7215 87.1478C15.6168 87.3259 15.5023 87.4972 15.4034 87.6789C15.1344 88.1725 14.8873 88.6789 14.6623 89.1979C14.6478 89.2314 14.6299 89.263 14.6154 89.2967C14.3812 89.8443 14.1735 90.4048 13.9922 90.978C13.9281 91.1786 13.8826 91.3871 13.8252 91.5905C13.7178 91.9703 13.6099 92.3494 13.5262 92.7393C13.4727 92.987 13.4384 93.2404 13.3948 93.4915C13.3465 93.7746 13.2831 94.0529 13.2468 94.3401H5.83871V5.7866H30.0323V41.6861C30.0323 42.0564 30.1193 42.4217 30.2863 42.7531C30.4533 43.0846 30.6957 43.3732 30.9946 43.5962C31.2934 43.8192 31.6405 43.9706 32.0086 44.0384C32.3766 44.1062 32.7555 44.0886 33.1155 43.987L49.3871 39.3885L65.6587 43.987C66.0187 44.0886 66.3976 44.1062 66.7656 44.0384C67.1337 43.9706 67.4808 43.8192 67.7796 43.5962C68.0785 43.3732 68.3209 43.0846 68.4879 42.7531C68.6549 42.4217 68.7419 42.0564 68.7419 41.6861V5.7866H92.9355V24.933ZM121.968 111.092C119.097 111.092 116.29 110.25 113.903 108.672C111.516 107.094 109.655 104.851 108.557 102.227C107.458 99.6034 107.17 96.7161 107.731 93.9305C108.291 91.145 109.673 88.5863 111.703 86.5781C113.733 84.5698 116.32 83.2022 119.136 82.6481C121.952 82.0941 124.87 82.3784 127.523 83.4653C130.175 84.5521 132.442 86.3927 134.037 88.7541C135.633 91.1156 136.484 93.8919 136.484 96.732C136.48 100.539 134.949 104.189 132.228 106.881C129.506 109.573 125.816 111.088 121.968 111.092ZM146.161 94.3387H141.171C141.135 94.0515 141.072 93.7732 141.023 93.4901C140.98 93.239 140.945 92.9855 140.892 92.7378C140.808 92.3489 140.7 91.9698 140.593 91.5891C140.536 91.3856 140.49 91.1772 140.426 90.9766C140.244 90.4046 140.036 89.8442 139.803 89.2953C139.788 89.2616 139.77 89.23 139.756 89.1965C139.53 88.6784 139.283 88.1721 139.015 87.6774C138.916 87.4958 138.801 87.3244 138.697 87.1464C138.499 86.8113 138.302 86.4746 138.085 86.1519C137.951 85.9528 137.804 85.7647 137.663 85.5711C137.454 85.2839 137.246 84.9967 137.021 84.7234C136.861 84.5267 136.689 84.3405 136.521 84.149C136.295 83.8946 136.07 83.6414 135.831 83.3989C135.648 83.2127 135.458 83.0356 135.268 82.8571C135.024 82.6283 134.778 82.4024 134.523 82.187C134.32 82.0161 134.114 81.8519 133.904 81.6899C133.643 81.4857 133.377 81.2878 133.104 81.0971C132.886 80.9448 132.665 80.7971 132.441 80.6538C132.16 80.4736 131.873 80.3025 131.582 80.1366C131.351 80.0052 131.119 79.8758 130.882 79.7537C130.581 79.5984 130.273 79.4553 129.963 79.3152C129.722 79.2068 129.483 79.0975 129.237 78.9986C128.913 78.8679 128.582 78.7535 128.249 78.6396C128.005 78.5563 127.764 78.4687 127.515 78.395C127.162 78.2902 126.8 78.2057 126.439 78.1208C126.2 78.0647 125.965 78.0011 125.723 77.9532C125.319 77.874 124.907 77.8206 124.494 77.767C124.285 77.7397 124.081 77.7005 123.87 77.6799C123.245 77.6201 122.61 77.5856 121.968 77.5856C121.325 77.5856 120.691 77.6201 120.064 77.6813C119.853 77.7019 119.649 77.7412 119.44 77.7685C119.028 77.8221 118.615 77.8754 118.211 77.9547C117.969 78.0025 117.734 78.0667 117.495 78.1222C117.134 78.2072 116.773 78.2916 116.419 78.3965C116.171 78.4702 115.93 78.5578 115.685 78.6411C115.353 78.7545 115.022 78.8689 114.697 79C114.452 79.0989 114.213 79.2083 113.972 79.3167C113.661 79.4567 113.354 79.5998 113.052 79.7551C112.815 79.8774 112.584 80.0069 112.353 80.1381C112.062 80.3039 111.775 80.475 111.493 80.6553C111.269 80.7989 111.048 80.9466 110.83 81.0985C110.558 81.29 110.292 81.4872 110.03 81.6913C109.821 81.8538 109.614 82.0175 109.412 82.1884C109.156 82.4038 108.91 82.6297 108.667 82.8585C108.476 83.0371 108.286 83.2142 108.103 83.4004C107.865 83.6428 107.639 83.896 107.413 84.1504C107.245 84.3419 107.075 84.5276 106.913 84.7248C106.689 84.9993 106.48 85.2861 106.272 85.5725C106.131 85.7662 105.983 85.9543 105.849 86.1534C105.631 86.476 105.435 86.812 105.238 87.1478C105.133 87.3259 105.018 87.4972 104.92 87.6789C104.65 88.1725 104.403 88.6789 104.178 89.1979C104.164 89.2314 104.146 89.263 104.132 89.2967C103.897 89.8443 103.69 90.4048 103.508 90.978C103.444 91.1786 103.399 91.3871 103.341 91.5905C103.234 91.9703 103.126 92.3494 103.042 92.7393C102.989 92.987 102.955 93.2404 102.911 93.4915C102.863 93.7746 102.799 94.0529 102.763 94.3401H97.7742V27.3263H107.607L109.876 60.9914C109.917 61.5974 110.189 62.1654 110.637 62.5803C111.085 62.9952 111.676 63.2259 112.29 63.2258H146.161V94.3387ZM146.161 58.4392H114.554L112.458 27.3263H128.135L146.161 47.5222V58.4392Z" fill="#1485C1" stroke="#1485C1"/>
</svg>
