<svg width="150" height="143" viewBox="0 0 150 143" fill="none" xmlns="http://www.w3.org/2000/svg">
<path d="M32.285 0.00231232C32.1858 0.0130744 32.0872 0.0297709 31.99 0.0523123C28.773 0.184891 25.7311 1.55318 23.4977 3.8723C21.2643 6.19142 20.0114 9.28263 20 12.5023V100.002H0.00999987V102.502H0V112.502C0.0106258 115.729 1.26861 118.827 3.51077 121.147C5.75294 123.467 8.80556 124.831 12.03 124.952C12.1847 124.984 12.3421 125.001 12.5 125.002H79.99V142.842L92.805 135.342L105 143.002V125.002H117.5C120.711 124.99 123.794 123.743 126.11 121.519C128.426 119.295 129.797 116.265 129.94 113.057C129.981 112.875 130.001 112.689 130 112.502V25.0023H150V12.5023C149.988 9.29144 148.74 6.20842 146.516 3.89236C144.293 1.5763 141.263 0.204853 138.055 0.0623127C137.873 0.021656 137.687 0.00153018 137.5 0.00231232H32.54C32.5267 0.00220565 32.5133 0.00220565 32.5 0.00231232C32.4284 -0.000770773 32.3566 -0.000770773 32.285 0.00231232ZM32.5 5.00231C32.5133 5.00242 32.5267 5.00242 32.54 5.00231C33.5242 4.99829 34.4993 5.18984 35.4088 5.56582C36.3184 5.94181 37.1441 6.49474 37.8382 7.19251C38.5322 7.89028 39.0807 8.71899 39.4518 9.63051C39.823 10.542 40.0093 11.5182 40 12.5023V22.5023H40.03V25.0023H125V72.3273C124.998 72.3856 124.998 72.444 125 72.5023V112.502C125 116.702 121.7 120.002 117.5 120.002H105V108.362C105.58 108.362 106.3 108.362 107.09 108.412C107.94 108.412 108.83 108.462 109.64 108.412C110.04 108.412 110.425 108.347 110.86 108.262C111.295 108.177 111.825 108.197 112.625 107.387C113.43 106.572 113.415 106.037 113.495 105.597C113.58 105.162 113.595 104.782 113.615 104.377C113.64 103.534 113.633 102.69 113.595 101.847C113.565 100.997 113.525 100.157 113.525 99.5623V99.4623C113.56 99.4623 113.565 99.4123 113.605 99.4123C114.115 99.1123 114.855 98.7223 115.605 98.3123C116.355 97.9023 117.12 97.4823 117.805 97.0423C118.152 96.8247 118.481 96.5806 118.79 96.3123C119.12 96.0123 119.585 95.7623 119.875 94.6623C120.16 93.5573 119.88 93.1073 119.735 92.6873C119.596 92.2982 119.427 91.9204 119.23 91.5573C118.827 90.8149 118.397 90.0878 117.94 89.3773C117.49 88.6523 117.045 87.9523 116.75 87.4323C116.73 87.3823 116.73 87.3823 116.71 87.3573C116.73 87.3073 116.725 87.2973 116.75 87.2573C117.04 86.7373 117.475 86.0323 117.92 85.3073C118.365 84.5773 118.81 83.8373 119.18 83.1173C119.365 82.7573 119.535 82.3973 119.68 81.9773C119.82 81.5573 120.095 81.1023 119.795 80.0023C119.495 78.9023 119.025 78.6523 118.695 78.3623C118.378 78.095 118.04 77.8526 117.685 77.6373C116.965 77.1981 116.229 76.7845 115.48 76.3973C114.725 75.9973 113.98 75.6123 113.465 75.3173C113.43 75.3173 113.425 75.2673 113.39 75.2673V75.1673C113.38 74.5723 113.405 73.7373 113.43 72.8823C113.458 72.0391 113.454 71.1952 113.42 70.3523C113.405 69.9426 113.358 69.5347 113.28 69.1323C113.195 68.6973 113.215 68.1673 112.4 67.3673C111.59 66.5673 111.06 66.5773 110.625 66.4973C110.219 66.4203 109.808 66.3735 109.395 66.3573C108.585 66.3073 107.72 66.3623 106.865 66.4073C106.015 66.4573 105.175 66.4773 104.58 66.4773H104.475L104.425 66.3873C104.12 65.8773 103.74 65.1373 103.33 64.3873C102.934 63.6418 102.51 62.9113 102.06 62.1973C101.843 61.8474 101.599 61.5147 101.33 61.2023C101.03 60.8723 100.78 60.4173 99.67 60.1273C98.565 59.8373 98.115 60.1273 97.695 60.2573C97.3071 60.3954 96.9309 60.5643 96.57 60.7623C95.8255 61.1643 95.0966 61.5946 94.385 62.0523C93.66 62.5073 92.97 62.9473 92.45 63.2423C92.41 63.2423 92.4 63.2923 92.365 63.2923C92.325 63.2923 92.315 63.2423 92.275 63.2423C91.6183 62.8671 90.9682 62.4804 90.325 62.0823C89.6076 61.6319 88.8738 61.2083 88.125 60.8123C87.7601 60.6194 87.3806 60.4556 86.99 60.3223C86.575 60.1823 86.12 59.9123 85.02 60.2073V60.2173C83.92 60.5173 83.67 60.9773 83.38 61.3123C83.1128 61.6246 82.8704 61.9573 82.655 62.3073C82.225 62.9923 81.815 63.7673 81.415 64.5223C81.015 65.2723 80.63 66.0073 80.33 66.5223C80.31 66.5723 80.305 66.5723 80.28 66.6123H80.18C79.58 66.6123 78.765 66.6123 77.91 66.5623C77.06 66.5623 76.17 66.5123 75.36 66.5623C74.96 66.5623 74.575 66.6273 74.14 66.7123C73.705 66.8023 73.175 66.7873 72.375 67.6023C71.575 68.4123 71.585 68.9423 71.505 69.3773C71.4333 69.7836 71.3932 70.1948 71.385 70.6073C71.355 71.4173 71.375 72.2873 71.405 73.1373C71.435 73.9873 71.475 74.8173 71.475 75.4123V75.5223C71.44 75.5223 71.435 75.5723 71.395 75.5723C70.885 75.8723 70.145 76.2623 69.395 76.6723C68.645 77.0823 67.89 77.5023 67.205 77.9423C66.8551 78.1597 66.5224 78.4038 66.21 78.6723C65.88 78.9723 65.415 79.2223 65.125 80.3223C64.84 81.4273 65.12 81.8773 65.265 82.2973C65.41 82.7173 65.585 83.0723 65.77 83.4323C66.15 84.1473 66.61 84.8773 67.06 85.5973C67.51 86.3223 67.955 87.0323 68.25 87.5473L68.29 87.6373C68.275 87.6873 68.27 87.6873 68.25 87.7173C67.96 88.2373 67.525 88.9523 67.08 89.6823C66.6332 90.3949 66.2129 91.1237 65.82 91.8673C65.6242 92.2321 65.457 92.6116 65.32 93.0023C65.18 93.4223 64.905 93.8723 65.205 94.9723C65.505 96.0723 65.975 96.3223 66.305 96.6123C66.645 96.9023 66.97 97.1223 67.315 97.3373C68 97.7723 68.765 98.1773 69.52 98.5773C70.275 98.9773 71.02 99.3623 71.535 99.6623C71.57 99.6623 71.575 99.7123 71.61 99.7123V99.8123C71.62 100.412 71.595 101.237 71.57 102.092C71.55 102.942 71.54 103.812 71.58 104.622C71.605 105.022 71.63 105.417 71.72 105.852C71.805 106.287 71.785 106.817 72.6 107.617C73.415 108.417 73.94 108.407 74.375 108.487C74.81 108.567 75.2 108.602 75.605 108.617C76.415 108.667 77.29 108.617 78.145 108.567C78.835 108.527 79.445 108.517 79.99 108.507V120.002H22.42C24.0812 117.854 24.988 115.218 25 112.502V12.5023C25 8.30231 28.3 5.00231 32.5 5.00231ZM42.43 5.00231H137.5C141.7 5.00231 145 8.30231 145 12.5023V20.0023H127.89C127.748 19.98 127.604 19.9699 127.46 19.9723C127.336 19.9731 127.212 19.9832 127.09 20.0023H45V12.5023C45 9.68231 44.02 7.10231 42.43 5.00231ZM35 35.0023V40.0023H115V35.0023H35ZM35 50.0023V55.0023H115V50.0023H35ZM35 65.0023V70.0023H65V65.0023H35ZM98.24 65.5873C98.465 65.9723 98.67 66.3223 98.925 66.7873C99.325 67.5173 99.74 68.2773 100.135 68.9473C100.335 69.2823 100.535 69.6023 100.76 69.9123C100.99 70.2223 101.13 70.5423 101.91 70.9873H101.925C102.71 71.4373 103.055 71.3773 103.435 71.4173C103.82 71.4673 104.185 71.4673 104.57 71.4773C105.35 71.4773 106.215 71.4273 107.04 71.3973H108.43C108.43 71.8473 108.44 72.2623 108.43 72.7973C108.405 73.6223 108.38 74.4773 108.39 75.2573C108.39 75.6473 108.405 76.0123 108.445 76.3973C108.495 76.7823 108.445 77.1323 108.905 77.9123C109.365 78.6923 109.685 78.8373 110 79.0623C110.315 79.2923 110.63 79.4723 110.965 79.6723C111.64 80.0623 112.415 80.4623 113.145 80.8523C113.615 81.1023 113.97 81.3023 114.355 81.5273C114.135 81.9123 113.93 82.2723 113.655 82.7273C113.22 83.4323 112.775 84.1673 112.395 84.8473C112.2 85.1873 112.02 85.5073 111.865 85.8623C111.715 86.2123 111.5 86.5023 111.505 87.4023C111.505 88.3123 111.725 88.5923 111.885 88.9523C112.045 89.3023 112.225 89.6173 112.42 89.9523C112.81 90.6273 113.26 91.3623 113.7 92.0623C113.985 92.5173 114.19 92.8723 114.415 93.2523C114.03 93.4773 113.68 93.6923 113.215 93.9523C112.485 94.3423 111.725 94.7523 111.055 95.1523C110.727 95.3402 110.408 95.5438 110.1 95.7623C109.785 95.9923 109.46 96.1323 109.015 96.9123C108.565 97.7023 108.615 98.0623 108.575 98.4473C108.535 98.8323 108.525 99.2023 108.525 99.5923C108.525 100.372 108.565 101.227 108.595 102.052C108.615 102.587 108.61 103.002 108.615 103.452H107.225C106.4 103.452 105.535 103.387 104.755 103.392C104.365 103.392 104.005 103.392 103.625 103.457C103.24 103.507 102.89 103.462 102.11 103.907H102.1C101.32 104.362 101.185 104.677 100.955 104.992C100.734 105.307 100.529 105.632 100.34 105.967C99.95 106.642 99.55 107.407 99.16 108.137C98.91 108.607 98.715 108.962 98.495 109.347C98.11 109.127 97.745 108.937 97.285 108.652C96.58 108.222 95.855 107.767 95.175 107.387C94.8419 107.195 94.4998 107.018 94.15 106.857C93.795 106.707 93.515 106.492 92.605 106.497C91.705 106.497 91.42 106.722 91.065 106.877C90.715 107.037 90.385 107.212 90.05 107.402C89.375 107.792 88.66 108.262 87.96 108.702C87.51 108.987 87.14 109.182 86.76 109.402C86.535 109.022 86.33 108.672 86.075 108.202C85.675 107.477 85.26 106.727 84.865 106.052C84.6728 105.722 84.4642 105.402 84.24 105.092C84.01 104.782 83.875 104.452 83.09 104.007C82.3 103.557 81.96 103.607 81.57 103.567C81.185 103.517 80.82 103.517 80.43 103.517C79.65 103.517 78.785 103.562 77.96 103.577H76.57C76.57 103.127 76.56 102.727 76.57 102.197C76.595 101.372 76.62 100.517 76.61 99.7373C76.6111 99.3533 76.5927 98.9695 76.555 98.5873C76.505 98.2023 76.555 97.8523 76.095 97.0723C75.635 96.2923 75.305 96.1573 74.99 95.9323C74.6814 95.7125 74.3627 95.5073 74.035 95.3173C73.36 94.9273 72.585 94.5323 71.855 94.1423C71.385 93.8923 71.03 93.6823 70.645 93.4573C70.865 93.0723 71.07 92.7123 71.345 92.2573C71.78 91.5523 72.225 90.8273 72.605 90.1473C72.8 89.8073 72.98 89.4773 73.135 89.1223C73.285 88.7723 73.5 88.4873 73.495 87.5823C73.495 86.6773 73.275 86.4023 73.115 86.0473C72.954 85.7001 72.7755 85.3613 72.58 85.0323C72.19 84.3573 71.74 83.6323 71.3 82.9323C71.015 82.4823 70.8 82.1223 70.575 81.7423C70.96 81.5173 71.32 81.3023 71.785 81.0473C72.515 80.6523 73.275 80.2473 73.945 79.8473C74.28 79.6473 74.595 79.4473 74.9 79.2223C75.215 78.9923 75.54 78.8473 75.985 78.0573C76.435 77.2723 76.385 76.9323 76.425 76.5473C76.465 76.1623 76.475 75.7973 76.475 75.4023C76.475 74.6223 76.435 73.7673 76.405 72.9423C76.385 72.4073 76.39 71.9923 76.385 71.5423H77.775C78.6 71.5423 79.465 71.5973 80.245 71.5923C80.635 71.5923 80.995 71.6023 81.375 71.5373C81.76 71.4873 82.12 71.5273 82.9 71.0773C83.68 70.6223 83.815 70.3073 84.045 69.9923C84.27 69.6773 84.465 69.3523 84.66 69.0173C85.05 68.3423 85.45 67.5773 85.84 66.8473C86.09 66.3773 86.285 66.0223 86.505 65.6373V65.6573C86.89 65.8773 87.255 66.0673 87.715 66.3523C88.42 66.7823 89.145 67.2373 89.825 67.6173C90.165 67.8073 90.495 67.9773 90.85 68.1273C91.205 68.2823 91.49 68.5023 92.395 68.4973C93.295 68.4973 93.58 68.2723 93.935 68.1173C94.285 67.9573 94.615 67.7823 94.95 67.5923C95.625 67.2023 96.34 66.7323 97.04 66.2923C97.49 66.0073 97.86 65.8123 98.24 65.5923V65.5873ZM92.44 75.8723C91.09 75.8723 90.6 76.5573 90.275 76.9173C89.9979 77.2252 89.7548 77.5622 89.55 77.9223C89.165 78.594 88.8146 79.2849 88.5 79.9923C88.17 80.6973 87.865 81.3923 87.625 81.8773C87.61 81.9273 87.6 81.9273 87.59 81.9473H87.53C86.995 82.0323 86.25 82.1223 85.49 82.2273C84.725 82.3197 83.9656 82.4532 83.215 82.6273C82.8129 82.7167 82.4222 82.8508 82.05 83.0273C81.615 83.2373 80.84 83.5073 80.43 84.8173C80.02 86.1223 80.495 86.8023 80.73 87.2273C80.97 87.6523 81.205 87.9423 81.455 88.2323C81.955 88.8123 82.515 89.3523 83.075 89.8823C83.64 90.4173 84.195 90.9323 84.58 91.3123C84.605 91.3123 84.605 91.3623 84.63 91.3623L84.62 91.4273C84.535 91.9673 84.395 92.7123 84.26 93.4773C84.1126 94.243 84.0041 95.0156 83.935 95.7923C83.91 96.1773 83.885 96.5473 83.945 97.0323C84.005 97.5173 84.025 98.3523 85.125 99.1523C86.225 99.9523 87.005 99.7023 87.48 99.6023C87.955 99.5023 88.305 99.3623 88.65 99.2123C89.35 98.9123 90.03 98.5423 90.7 98.1623C91.375 97.7923 92.03 97.4023 92.51 97.1523C92.535 97.1523 92.54 97.1523 92.57 97.1023C92.595 97.1023 92.6 97.1023 92.625 97.1523C93.11 97.3973 93.765 97.7673 94.445 98.1373C95.12 98.5023 95.81 98.8723 96.515 99.1623C96.865 99.3073 97.215 99.4423 97.685 99.5323C98.16 99.6223 98.95 99.8723 100.035 99.0573C101.135 98.2423 101.135 97.4123 101.19 96.9273C101.234 96.5152 101.234 96.0994 101.19 95.6873C101.113 94.9135 100.996 94.1442 100.84 93.3823C100.69 92.6173 100.54 91.8723 100.45 91.3323L100.44 91.2623C100.46 91.2623 100.465 91.2123 100.49 91.2123C100.87 90.8223 101.42 90.3073 101.975 89.7673C102.525 89.2273 103.085 88.6723 103.575 88.0873C103.82 87.7923 104.055 87.5123 104.285 87.0823C104.52 86.6523 104.985 85.9623 104.56 84.6623C104.135 83.3623 103.35 83.1073 102.91 82.9023C102.538 82.7315 102.149 82.6007 101.75 82.5123C100.999 82.3482 100.239 82.2247 99.475 82.1423C98.71 82.0423 97.965 81.9673 97.43 81.8873H97.365C97.35 81.8373 97.35 81.8373 97.335 81.8273C97.085 81.3423 96.77 80.6423 96.435 79.9423C96.1086 79.2376 95.7465 78.5501 95.35 77.8823C95.1426 77.5288 94.8979 77.1986 94.62 76.8973C94.29 76.5423 93.795 75.8723 92.44 75.8823V75.8723ZM35 80.0023V85.0023H60V80.0023H35ZM92.49 83.2323C92.63 83.5323 92.77 83.8323 92.91 84.1123C93.07 84.4223 93.225 84.7123 93.41 85.0123C93.595 85.3073 93.665 85.5973 94.365 86.1073C95.065 86.6123 95.365 86.5973 95.705 86.6823C96.04 86.7623 96.365 86.8173 96.705 86.8673C97.015 86.9173 97.345 86.9523 97.665 86.9923C97.43 87.2173 97.18 87.4473 96.965 87.6673C96.7213 87.9126 96.4878 88.1679 96.265 88.4323C96.045 88.7023 95.81 88.8623 95.545 89.6923C95.285 90.5223 95.395 90.8023 95.42 91.1523C95.445 91.5023 95.49 91.8323 95.545 92.1823C95.595 92.4923 95.67 92.8123 95.73 93.1373C95.445 92.9823 95.16 92.8173 94.88 92.6773C94.5787 92.5194 94.27 92.3759 93.955 92.2473C93.635 92.1173 93.4 91.9323 92.54 91.9373C91.68 91.9373 91.44 92.1273 91.125 92.2573C90.805 92.3923 90.51 92.5473 90.205 92.7073C89.93 92.8523 89.65 93.0173 89.365 93.1773C89.425 92.8523 89.485 92.5173 89.53 92.2073C89.585 91.8623 89.625 91.5323 89.65 91.1823C89.67 90.8323 89.785 90.5573 89.51 89.7323C89.24 88.9023 88.985 88.7323 88.76 88.4673C88.5374 88.2107 88.3038 87.9638 88.06 87.7273L87.355 87.0523C87.675 87.0023 88.005 86.9673 88.31 86.9173C88.655 86.8623 88.97 86.8073 89.31 86.7173C89.645 86.6373 89.94 86.6373 90.635 86.1273C91.33 85.6073 91.41 85.3223 91.59 85.0223C91.77 84.7223 91.915 84.4273 92.07 84.1123C92.205 83.8373 92.355 83.5323 92.49 83.2323ZM5 105.002H20V112.502C20 116.702 16.7 120.002 12.5 120.002C8.3 120.002 5 116.702 5 112.502V105.002ZM35 105.002V110.002H65V105.002H35ZM95 113.077C95.625 113.457 96.26 113.847 96.875 114.162C97.235 114.347 97.585 114.512 98.01 114.652C98.43 114.792 98.89 115.072 99.99 114.767H100V133.957L92.89 129.492L84.99 134.122V114.687C85.12 114.737 85.165 114.802 85.33 114.847C86.435 115.137 86.885 114.847 87.305 114.717C87.725 114.572 88.07 114.402 88.43 114.212C88.945 113.942 89.475 113.602 90 113.272V122.502H95V113.077Z" fill="#1485C1"/>
</svg>
