<svg width="39" height="38" viewBox="0 0 39 38" fill="none" xmlns="http://www.w3.org/2000/svg">
<path d="M21.5089 5.80886C21.9839 5.33394 22.6282 5.06714 23.2999 5.06714C23.9717 5.06714 24.6159 5.33394 25.091 5.80886L36.491 17.2089C36.9659 17.6839 37.2327 18.3282 37.2327 18.9999C37.2327 19.6717 36.9659 20.3159 36.491 20.791L25.091 32.191C24.6132 32.6525 23.9733 32.9078 23.3091 32.902C22.6448 32.8963 22.0094 32.6298 21.5397 32.1601C21.07 31.6904 20.8036 31.055 20.7978 30.3908C20.7921 29.7266 21.0474 29.0867 21.5089 28.6089L28.3666 21.5333H4.29993C3.62805 21.5333 2.98369 21.2664 2.5086 20.7913C2.03351 20.3162 1.7666 19.6718 1.7666 18.9999C1.7666 18.328 2.03351 17.6837 2.5086 17.2086C2.98369 16.7335 3.62805 16.4666 4.29993 16.4666H28.3666L21.5089 9.391C21.0339 8.91593 20.7671 8.27168 20.7671 7.59993C20.7671 6.92818 21.0339 6.28393 21.5089 5.80886Z" fill="white"/>
</svg>
