<svg width="160" height="161" viewBox="0 0 160 161" fill="none" xmlns="http://www.w3.org/2000/svg">
<path d="M107.941 30.4716C107.479 30.6817 106.639 31.354 106.05 31.9842C105.126 32.9506 105 33.5809 104.832 36.6481L104.706 40.1775H101.891C97.437 40.1775 95.5882 41.8582 95.5462 45.9338V48.1607H97.1849H98.8655L98.9916 45.9338L99.1176 43.7489L101.975 43.6229L104.79 43.4968V45.8498V48.1607H106.471H108.151V41.312C108.151 37.5725 108.319 34.2532 108.487 33.959C108.782 33.5809 110.882 33.4548 117.647 33.5389L126.429 33.6649L126.555 80.1775L126.639 126.732H120.546H114.454V90.8078C114.454 50.9338 114.58 52.9086 111.723 51.6901C110.63 51.2279 108.109 51.1019 101.429 51.1019H92.605L91.0084 52.5305L89.4538 53.959L89.3277 60.8498C89.2017 66.0179 89.3698 68.4548 89.8319 70.5977C90.6303 74.0431 90.6723 76.1019 89.874 79.6733C89.5378 81.1859 89.2857 84.3372 89.2437 86.6481V90.8918L90.5462 91.1859C91.2605 91.312 92.0168 91.438 92.2269 91.438C92.437 91.438 92.605 89.4212 92.605 86.9002C92.6471 84.4212 92.8992 81.1859 93.2353 79.6733C94.0336 76.1439 94.0336 73.833 93.2353 70.8078C92.7311 68.959 92.605 66.5641 92.6891 61.5221L92.8151 54.6733H101.849H110.882L111.008 90.6817L111.092 126.732H101.849H92.605V121.27V115.808H90.9244H89.2437V121.27V126.732H80.8824H72.479L73.1092 125.262C73.4034 124.463 73.6975 122.993 73.6975 121.984C73.6975 118.203 69.916 114.547 66.0084 114.547H64.4538V112.657V110.766H68.3613C73.9496 110.766 73.6975 111.186 73.6975 100.976C73.6975 92.9086 73.6975 92.7405 72.6891 91.5641L71.6807 90.3876L75.4202 82.9506C77.479 78.833 79.3277 75.4716 79.5378 75.4716C79.7479 75.4716 80.042 76.1019 80.2101 76.8162C80.3782 77.5725 80.9244 79.7153 81.4706 81.5641C81.9748 83.4128 83.0252 87.1523 83.7815 89.8834L85.1261 94.8414L83.1933 96.6061C80.8824 98.791 80 100.766 80 103.707C80.042 110.514 87.1849 115.262 93.2353 112.488C95.084 111.648 97.8571 108.833 98.4874 107.152C99.1597 105.472 98.9916 101.228 98.2353 99.7153C96.6807 96.6481 94.3277 94.9674 90.5042 94.1691L88.2353 93.7069L85.5882 84.2952L82.9832 74.9254L84.0336 73.7069C85.9664 71.354 85.9244 68.1607 83.8235 66.1019C82.2689 64.5052 78.9496 64.0431 77.2689 65.1355C75.7563 66.1439 74.5378 68.2868 74.5378 70.0095C74.4958 71.312 73.7395 72.3204 68.2353 78.4968L61.9328 85.5137L59.2017 84.2111C56.5546 82.9926 56.3866 82.9506 55.6303 83.6649C55.042 84.2111 54.7899 84.9674 54.7899 86.27V88.0767H47.3109C40.042 88.0767 39.7899 88.1187 38.9076 89.0431C38.1933 89.7994 37.9832 90.5977 37.8992 93.5389L37.7731 97.1103L34.2857 97.3204C31.8067 97.4884 30.6723 97.6985 30.4202 98.1607C30.2101 98.4968 30 101.186 30 104.127C30 109.169 30.042 109.505 30.9244 110.093C31.7227 110.682 33.6555 110.766 43.3193 110.766H54.7899V112.657V114.547H45.5882C35.4202 114.547 34.5378 114.715 32.2269 117.152C29.958 119.505 29.4538 121.984 30.6303 125.262C31.1345 126.69 31.1345 126.984 30.6303 127.278C29.8739 127.699 29.8319 128.917 30.5042 129.589C31.2185 130.304 128.782 130.304 129.496 129.589C129.874 129.211 130 117.867 130 81.0599V33.0347L128.782 31.6901L127.563 30.3036L118.151 30.2195C113.025 30.1775 108.403 30.3036 107.941 30.4716ZM81.1765 68.1607C82.1849 68.875 82.437 70.7658 81.5966 71.6061C81.3025 71.9002 80.5882 72.1103 80 72.1103C78.6134 72.1103 77.8992 71.396 77.8992 69.9674C77.8992 68.959 79.1597 67.4884 80 67.4884C80.1261 67.4884 80.6723 67.7826 81.1765 68.1607ZM72.395 82.0263C70.5042 85.6817 68.8655 88.791 68.7815 88.875C68.6975 89.001 67.7731 88.6649 66.7227 88.1607L64.8319 87.2363L65.7143 86.1019C67.437 83.875 75.5042 75.0515 75.6723 75.2195C75.7563 75.3036 74.2857 78.3708 72.395 82.0263ZM70.2521 100.472L70.3361 107.404H51.8487H33.3613V104.043V100.682H45.7563H58.1513V93.959V87.2784L64.1597 90.3876L70.1261 93.4968L70.2521 100.472ZM54.7899 94.1691V97.3204H47.8571H40.9244V94.1691V91.0179H47.8571H54.7899V94.1691ZM91.9328 97.9086C94.0336 98.791 95.5462 101.228 95.5462 103.791C95.5462 105.64 95.3782 106.018 93.6555 107.699L91.7647 109.589L88.9916 109.421C86.3866 109.253 86.0924 109.127 84.7899 107.699C83.4874 106.312 83.3613 105.934 83.3613 103.623C83.3613 101.186 83.4454 101.018 85.2521 99.2111C86.8487 97.5725 87.3529 97.3204 88.8235 97.3204C89.7479 97.3204 91.1765 97.5725 91.9328 97.9086ZM61.0924 112.657C61.0924 114.547 61.0924 114.547 59.6218 114.547C58.1513 114.547 58.1513 114.547 58.1513 112.657C58.1513 110.766 58.1513 110.766 59.6218 110.766C61.0924 110.766 61.0924 110.766 61.0924 112.657ZM67.563 118.077C69.4538 118.875 70.3361 120.262 70.3361 122.446C70.3361 123.917 70.084 124.505 69.0756 125.514L67.8571 126.774L51.6387 126.648L35.3782 126.522L34.3697 125.346C33.6555 124.505 33.3613 123.665 33.3613 122.488C33.3613 120.346 33.9076 119.337 35.5882 118.329C36.8487 117.53 37.8151 117.488 51.5546 117.488C63.1092 117.488 66.4706 117.614 67.563 118.077Z" fill="white"/>
<path d="M63.2353 96.228C62.521 97.0683 62.8151 99.4633 63.7395 100.009C65.3361 101.018 66.8067 98.4969 65.7143 96.4801C65.2101 95.5137 63.9496 95.3876 63.2353 96.228Z" fill="white"/>
<path d="M38.1513 121.438C37.6891 122.615 38.1933 123.581 39.2017 123.581C40.3782 123.581 41.1765 122.531 40.7984 121.522C40.4622 120.682 38.4454 120.64 38.1513 121.438Z" fill="white"/>
<path d="M44.4538 121.438C43.9916 122.615 44.4958 123.581 45.5042 123.581C46.8487 123.581 47.563 122.404 46.8487 121.522C46.1345 120.682 44.7479 120.64 44.4538 121.438Z" fill="white"/>
<path d="M50.5462 121.522C49.832 122.404 50.5462 123.581 51.8488 123.581C53.1513 123.581 53.8656 122.404 53.1513 121.522C52.8152 121.144 52.2689 120.85 51.8488 120.85C51.4286 120.85 50.8824 121.144 50.5462 121.522Z" fill="white"/>
<path d="M56.8487 121.522C56.1344 122.404 56.8487 123.581 58.1513 123.581C59.4538 123.581 60.1681 122.404 59.4538 121.522C59.1176 121.144 58.5714 120.85 58.1513 120.85C57.7311 120.85 57.1849 121.144 56.8487 121.522Z" fill="white"/>
<path d="M63.1933 121.48C62.437 122.404 63.1513 123.581 64.4958 123.581C65.3362 123.581 65.5042 123.371 65.5042 122.32C65.5042 121.354 65.2941 121.018 64.6219 120.934C64.1597 120.85 63.4874 121.102 63.1933 121.48Z" fill="white"/>
<path d="M111.471 37.0683C110.546 38.2028 111.513 39.1271 113.613 39.1271C114.832 39.1271 115.546 38.9171 115.84 38.4129C116.555 37.3624 115.462 36.396 113.613 36.396C112.689 36.396 111.807 36.6902 111.471 37.0683Z" fill="white"/>
<path d="M119.538 36.9843C119.244 37.3204 119.076 37.9507 119.16 38.3708C119.286 38.9591 119.706 39.1271 121.387 39.1271C123.445 39.1271 123.487 39.0851 123.487 37.8666C123.487 36.6902 123.361 36.6061 121.765 36.4801C120.63 36.396 119.874 36.5641 119.538 36.9843Z" fill="white"/>
<path d="M79.2437 40.6818C78.4454 41.4801 78.6555 42.6145 79.7899 43.3708L80.8403 44.0431L79.7479 44.8834C78.5714 45.8498 78.5294 47.1944 79.6639 47.9087C80.2521 48.2448 80.8823 47.9927 82.8151 46.6902C86.0924 44.4213 86.1765 43.6229 83.2773 41.6902C80.9244 40.0935 80.042 39.8834 79.2437 40.6818Z" fill="white"/>
<path d="M73.4454 43.2868C72.8992 44.6734 73.4454 45.4297 74.958 45.4297C76.3025 45.4297 76.4286 45.3456 76.4286 44.1692C76.4286 43.0347 76.2605 42.9086 75.042 42.7826C74.1176 42.6986 73.6134 42.8666 73.4454 43.2868Z" fill="white"/>
<path d="M111.471 43.3708C110.546 44.5053 111.513 45.4297 113.613 45.4297C114.832 45.4297 115.546 45.2196 115.84 44.7154C116.555 43.665 115.462 42.6986 113.613 42.6986C112.689 42.6986 111.807 42.9927 111.471 43.3708Z" fill="white"/>
<path d="M119.244 43.2868C118.655 44.8414 119.244 45.4297 121.387 45.4297C123.445 45.4297 123.487 45.3876 123.487 44.1692C123.487 42.9507 123.403 42.9086 121.471 42.7826C120 42.6986 119.412 42.8246 119.244 43.2868Z" fill="white"/>
<path d="M62.353 44.9255C61.0504 45.5557 60.8404 46.5641 61.7647 47.4885C62.521 48.2868 63.9496 48.0347 64.7899 46.9843C65.4622 46.1019 65.4202 45.8498 64.6219 45.0515C63.8236 44.2532 63.6975 44.2532 62.353 44.9255Z" fill="white"/>
<path d="M56.0924 47.9086C54.8319 49.4213 56.4706 51.186 58.3613 50.3456C59.2437 49.9255 59.4538 49.5893 59.3277 48.665C59.2437 47.7406 58.9496 47.4885 57.8992 47.4044C57.1429 47.3204 56.3866 47.5305 56.0924 47.9086Z" fill="white"/>
<path d="M119.202 49.6734C118.739 50.8918 119.664 51.7322 121.387 51.7322C123.109 51.7322 124.034 50.8918 123.571 49.6734C123.361 49.2112 122.773 49.0011 121.387 49.0011C120 49.0011 119.412 49.2112 119.202 49.6734Z" fill="white"/>
<path d="M51.3025 51.4381C50.3362 52.4885 50.4202 53.4969 51.4706 54.0431C52.7731 54.7574 54.4538 53.5389 54.2857 52.0263C54.1177 50.5977 52.353 50.2616 51.3025 51.4381Z" fill="white"/>
<path d="M47.0168 55.8918C45.6723 57.9086 47.8571 59.6733 49.4958 57.8666C50.5882 56.6481 50.2101 55.1355 48.8235 54.9675C47.9832 54.8834 47.521 55.0935 47.0168 55.8918Z" fill="white"/>
<path d="M119.58 55.3876C118.319 56.6481 119.37 58.2448 121.387 58.2448C122.857 58.2448 123.697 57.6145 123.697 56.4801C123.697 55.0935 120.672 54.2952 119.58 55.3876Z" fill="white"/>
<path d="M96.0504 57.9087C94.7899 59.1692 95.9664 60.7658 98.1933 60.7658C99.4958 60.7658 100.294 59.8414 100.084 58.5809C100 57.7826 99.6638 57.5725 98.2773 57.4885C97.3109 57.4045 96.3445 57.6145 96.0504 57.9087Z" fill="white"/>
<path d="M104.034 57.9086C102.269 59.6733 104.958 61.6061 107.353 60.3456C109.034 59.4212 108.025 57.4044 105.84 57.4044C105.126 57.4044 104.328 57.6145 104.034 57.9086Z" fill="white"/>
<path d="M43.7395 60.6818C42.521 61.9843 43.1092 63.707 44.7479 63.707C45.7143 63.707 46.9328 61.7742 46.5966 60.7658C46.2605 59.7154 44.6639 59.6734 43.7395 60.6818Z" fill="white"/>
<path d="M119.58 61.6902C118.277 62.9927 119.496 64.6734 121.639 64.4633C123.277 64.2952 124.118 63.2028 123.445 62.1103C122.899 61.228 120.336 60.9339 119.58 61.6902Z" fill="white"/>
<path d="M96.0084 64.2952C95.7143 64.6313 95.5882 65.3036 95.7563 65.8078C96.0084 66.5641 96.3025 66.6902 97.9832 66.5641C99.874 66.4381 99.958 66.396 99.958 65.1776C99.958 64.0011 99.8319 63.917 98.2353 63.791C97.1008 63.707 96.3445 63.875 96.0084 64.2952Z" fill="white"/>
<path d="M103.95 64.3372C102.941 65.5557 103.613 66.4381 105.714 66.5641C107.395 66.6902 107.689 66.5641 107.941 65.8078C108.109 65.3036 107.983 64.6733 107.731 64.3372C107.059 63.5389 104.622 63.5389 103.95 64.3372Z" fill="white"/>
<path d="M41.1765 66.1859C40.2941 67.1523 40.4202 68.2448 41.4706 68.917C42.9832 69.8834 44.6219 67.4464 43.4454 65.9759C42.7311 65.1775 42.0168 65.2196 41.1765 66.1859Z" fill="white"/>
<path d="M119.58 67.9927C118.277 69.2952 119.496 70.9759 121.639 70.7658C123.277 70.5977 124.118 69.5053 123.445 68.4128C122.899 67.5305 120.336 67.2364 119.58 67.9927Z" fill="white"/>
<path d="M95.9664 70.6398C95 71.8162 95.9664 72.7406 98.1092 72.7406C99.8739 72.7406 99.958 72.6986 99.958 71.4801C99.958 70.3036 99.8319 70.2196 98.2353 70.0935C97.0588 70.0095 96.3445 70.1776 95.9664 70.6398Z" fill="white"/>
<path d="M103.697 70.5977C103.151 72.0263 103.697 72.7406 105.462 72.8666C107.395 72.9927 108.361 72.2364 107.941 70.8498C107.731 70.1775 107.311 70.0095 105.798 70.0095C104.538 70.0095 103.866 70.2196 103.697 70.5977Z" fill="white"/>
<path d="M39.5378 71.5221C38.9496 72.1523 39.2437 74.6313 39.9159 74.9254C41.0504 75.3456 41.9748 74.4633 41.9748 72.9086C41.9748 71.6901 41.8067 71.4801 40.9244 71.354C40.3361 71.27 39.7059 71.354 39.5378 71.5221Z" fill="white"/>
<path d="M119.58 74.2952C118.824 75.0515 118.95 76.228 119.916 76.7322C121.933 77.8246 124.454 76.354 123.445 74.7154C122.899 73.833 120.336 73.5389 119.58 74.2952Z" fill="white"/>
<path d="M95.9664 76.9423C95 78.1187 95.9664 79.0431 98.1092 79.0431C99.8739 79.0431 99.958 79.0011 99.958 77.7826C99.958 76.6061 99.8319 76.5221 98.2353 76.396C97.0588 76.312 96.3445 76.4801 95.9664 76.9423Z" fill="white"/>
<path d="M103.697 76.9002C103.151 78.3288 103.697 79.0431 105.462 79.1691C107.395 79.2952 108.361 78.5389 107.941 77.1523C107.731 76.4801 107.311 76.312 105.798 76.312C104.538 76.312 103.866 76.5221 103.697 76.9002Z" fill="white"/>
<path d="M39.0336 77.9927C37.563 79.5893 39.7479 81.9423 41.2605 80.4297C42.0168 79.6734 41.8487 78.0767 40.9664 77.5725C39.8739 77.0263 39.9159 77.0263 39.0336 77.9927Z" fill="white"/>
<path d="M119.496 80.7238C119.244 81.0599 119.076 81.6481 119.16 82.0683C119.37 83.1607 123.403 83.1607 123.613 82.0683C123.824 80.9339 122.899 80.0935 121.387 80.0935C120.63 80.0935 119.79 80.3876 119.496 80.7238Z" fill="white"/>
<path d="M95.7563 83.4549C95.3361 84.8414 96.2605 85.5977 98.2353 85.4717C99.8319 85.3456 99.958 85.2616 99.958 84.0851C99.958 82.8666 99.874 82.8246 97.9832 82.6986C96.3025 82.5725 96.0084 82.6986 95.7563 83.4549Z" fill="white"/>
<path d="M103.655 83.2868C103.193 84.5053 104.118 85.3456 105.84 85.3456C107.563 85.3456 108.487 84.5053 108.025 83.2868C107.647 82.3204 104.034 82.3204 103.655 83.2868Z" fill="white"/>
<path d="M119.538 86.9843C119.244 87.3204 119.076 87.9507 119.16 88.3708C119.286 88.9591 119.706 89.1271 121.387 89.1271C123.445 89.1271 123.487 89.0851 123.487 87.8666C123.487 86.6902 123.361 86.6061 121.765 86.4801C120.63 86.396 119.874 86.5641 119.538 86.9843Z" fill="white"/>
<path d="M96.3025 88.9591C95.4202 89.4633 95.3361 90.6397 96.0504 91.354C96.5966 91.9002 98.4034 92.0263 99.4958 91.6061C100.294 91.312 100.378 89.7154 99.6639 89.0011C99.0336 88.3708 97.2689 88.3708 96.3025 88.9591Z" fill="white"/>
<path d="M104.034 89.0011C102.731 90.3036 103.95 91.9843 106.092 91.7742C107.731 91.6061 108.571 90.5137 107.899 89.4213C107.353 88.5389 104.79 88.2448 104.034 89.0011Z" fill="white"/>
<path d="M119.244 93.2868C118.655 94.8415 119.244 95.4297 121.387 95.4297C123.445 95.4297 123.487 95.3877 123.487 94.1692C123.487 92.9507 123.403 92.9087 121.471 92.7826C120 92.6986 119.412 92.8246 119.244 93.2868Z" fill="white"/>
<path d="M104.034 95.3036C102.731 96.6061 103.95 98.2868 106.092 98.0767C107.731 97.9086 108.571 96.8162 107.899 95.7237C107.353 94.8414 104.79 94.5473 104.034 95.3036Z" fill="white"/>
<path d="M119.202 99.6734C118.739 100.892 119.664 101.732 121.387 101.732C123.109 101.732 124.034 100.892 123.571 99.6734C123.193 98.707 119.58 98.707 119.202 99.6734Z" fill="white"/>
<path d="M104.034 101.606C102.731 102.909 103.95 104.589 106.092 104.379C107.731 104.211 108.571 103.119 107.899 102.026C107.353 101.144 104.79 100.85 104.034 101.606Z" fill="white"/>
<path d="M119.58 105.388C118.319 106.648 119.37 108.245 121.387 108.245C122.857 108.245 123.697 107.614 123.697 106.48C123.697 105.093 120.672 104.295 119.58 105.388Z" fill="white"/>
<path d="M104.034 107.909C102.269 109.673 104.958 111.606 107.353 110.346C109.034 109.421 108.025 107.404 105.84 107.404C105.126 107.404 104.328 107.615 104.034 107.909Z" fill="white"/>
<path d="M76.6807 113.035C74.7059 115.051 74.5378 116.354 76.1765 116.564C76.8488 116.69 77.6471 116.228 78.7815 115.136C80.4622 113.497 80.7983 112.572 79.916 111.69C79.1177 110.892 78.6135 111.102 76.6807 113.035Z" fill="white"/>
<path d="M119.58 111.69C118.277 112.993 119.496 114.673 121.639 114.463C123.277 114.295 124.118 113.203 123.445 112.11C122.899 111.228 120.336 110.934 119.58 111.69Z" fill="white"/>
<path d="M96.0084 114.295C95.7143 114.631 95.5882 115.304 95.7563 115.808C96.0084 116.564 96.3025 116.69 97.9832 116.564C99.874 116.438 99.958 116.396 99.958 115.178C99.958 114.001 99.8319 113.917 98.2353 113.791C97.1008 113.707 96.3445 113.875 96.0084 114.295Z" fill="white"/>
<path d="M103.95 114.337C102.941 115.556 103.613 116.438 105.714 116.564C107.395 116.69 107.689 116.564 107.941 115.808C108.109 115.304 107.983 114.673 107.731 114.337C107.059 113.539 104.622 113.539 103.95 114.337Z" fill="white"/>
<path d="M82.1008 115.892C80.5882 118.371 80.5042 120.178 81.8908 120.682C82.7311 121.018 83.6555 120.22 84.7059 118.203C85.7563 116.102 85.4622 114.547 83.9916 114.547C83.2353 114.547 82.6891 114.967 82.1008 115.892Z" fill="white"/>
<path d="M119.58 117.993C118.277 119.295 119.496 120.976 121.639 120.766C123.277 120.598 124.118 119.505 123.445 118.413C122.899 117.53 120.336 117.236 119.58 117.993Z" fill="white"/>
<path d="M95.9664 120.64C95 121.816 95.9664 122.741 98.1092 122.741C99.8739 122.741 99.958 122.699 99.958 121.48C99.958 120.304 99.8319 120.22 98.2353 120.094C97.0588 120.01 96.3445 120.178 95.9664 120.64Z" fill="white"/>
<path d="M103.697 120.598C103.151 122.026 103.697 122.741 105.462 122.867C107.395 122.993 108.361 122.236 107.941 120.85C107.731 120.178 107.311 120.01 105.798 120.01C104.538 120.01 103.866 120.22 103.697 120.598Z" fill="white"/>
<circle cx="80" cy="80.2114" r="77.5" stroke="white" stroke-width="5"/>
</svg>
