<svg width="160" height="161" viewBox="0 0 160 161" fill="none" xmlns="http://www.w3.org/2000/svg">
<circle cx="80" cy="80.2114" r="77.5" stroke="white" stroke-width="5"/>
<path d="M127.948 74.9985L125.158 72.7225L119.231 60.3492C118.781 59.4011 118.072 58.5997 117.185 58.0378C116.299 57.476 115.272 57.1766 114.222 57.1744H96.6667V49.767C96.665 48.2941 96.0792 46.8819 95.0377 45.8404C93.9962 44.7989 92.584 44.2131 91.1111 44.2114H60.6852C58.3483 44.2079 56.0975 45.0929 54.3889 46.6872L31.7976 67.6698C31.2295 68.1862 30.776 68.816 30.4664 69.5185C30.1568 70.2211 29.9979 70.9807 30 71.7485V101.619C30 102.11 30.1951 102.581 30.5424 102.928C30.8897 103.276 31.3607 103.471 31.8519 103.471H44.8148C44.8148 106.418 45.9855 109.244 48.0692 111.327C50.1529 113.411 52.9791 114.582 55.9259 114.582C58.8728 114.582 61.6989 113.411 63.7827 111.327C65.8664 109.244 67.037 106.418 67.037 103.471H98.693C98.693 106.418 99.8636 109.244 101.947 111.327C104.031 113.411 106.857 114.582 109.804 114.582C112.751 114.582 115.577 113.411 117.661 111.327C119.745 109.244 120.915 106.418 120.915 103.471H128.148C128.639 103.471 129.11 103.276 129.458 102.928C129.805 102.581 130 102.11 130 101.619V79.304C130.002 78.4786 129.819 77.6632 129.464 76.918C129.109 76.1728 128.591 75.5169 127.948 74.9985ZM115.885 61.9379L120.727 72.0453H104.074V60.8781H114.222C114.572 60.8762 114.915 60.9752 115.21 61.1631C115.505 61.3511 115.739 61.6201 115.885 61.9379ZM34.2978 70.4024L56.9115 49.399C57.9352 48.4429 59.2844 47.9123 60.6852 47.9151H91.1111C91.6021 47.9158 92.0727 48.1111 92.4199 48.4582C92.767 48.8054 92.9623 49.276 92.963 49.767V84.9522H33.7037V71.7485C33.7035 71.4951 33.7562 71.2444 33.8585 71.0126C33.9608 70.7808 34.1105 70.573 34.2978 70.4024ZM55.9259 110.878C54.4609 110.878 53.0287 110.444 51.8106 109.63C50.5925 108.816 49.643 107.659 49.0824 106.305C48.5217 104.952 48.375 103.462 48.6609 102.026C48.9467 100.589 49.6522 99.2688 50.6881 98.2328C51.7241 97.1969 53.0439 96.4914 54.4808 96.2056C55.9177 95.9198 57.4071 96.0665 58.7606 96.6271C60.1142 97.1878 61.271 98.1372 62.085 99.3553C62.8989 100.573 63.3333 102.006 63.3333 103.471C63.3311 105.435 62.55 107.317 61.1613 108.706C59.7726 110.095 57.8898 110.876 55.9259 110.878ZM66.3889 99.767C65.6263 97.601 64.2102 95.7251 62.3361 94.3981C60.462 93.0711 58.2223 92.3584 55.9259 92.3584C53.6296 92.3584 51.3899 93.0711 49.5158 94.3981C47.6417 95.7251 46.2256 97.601 45.463 99.767H33.7037V88.6559H92.963V99.767H66.3889ZM96.6667 99.767V96.0633H101.546C100.576 97.142 99.8276 98.4003 99.342 99.767H96.6667ZM109.804 110.878C108.339 110.878 106.907 110.444 105.689 109.63C104.471 108.816 103.521 107.659 102.961 106.305C102.4 104.952 102.253 103.462 102.539 102.026C102.825 100.589 103.53 99.2688 104.566 98.2328C105.602 97.1969 106.922 96.4914 108.359 96.2056C109.796 95.9198 111.285 96.0665 112.639 96.6271C113.992 97.1878 115.149 98.1372 115.963 99.3553C116.777 100.573 117.211 102.006 117.211 103.471C117.209 105.435 116.428 107.317 115.039 108.706C113.651 110.095 111.768 110.876 109.804 110.878ZM120.267 99.767C119.501 97.6034 118.084 95.73 116.21 94.4038C114.337 93.0775 112.099 92.3635 109.804 92.3596H96.6667V60.8781H100.37V73.8966C100.37 74.3878 100.565 74.8588 100.913 75.2061C101.26 75.5534 101.731 75.7485 102.222 75.7485H123.008L125.614 77.8733C125.827 78.0453 126 78.2632 126.118 78.5109C126.236 78.7585 126.297 79.0296 126.296 79.304V81.2485H124.444C122.971 81.2485 121.558 81.8338 120.516 82.8756C119.474 83.9175 118.889 85.3306 118.889 86.804C118.889 88.2774 119.474 89.6905 120.516 90.7324C121.558 91.7743 122.971 92.3596 124.444 92.3596H126.296V99.767H120.267ZM126.296 88.6559H124.444C123.953 88.6559 123.482 88.4608 123.135 88.1135C122.788 87.7662 122.593 87.2952 122.593 86.804C122.593 86.3129 122.788 85.8418 123.135 85.4946C123.482 85.1473 123.953 84.9522 124.444 84.9522H126.296V88.6559Z" fill="white"/>
<path d="M105.926 77.6003H102.222C101.731 77.6003 101.26 77.7954 100.913 78.1427C100.565 78.49 100.37 78.961 100.37 79.4522C100.37 79.9433 100.565 80.4144 100.913 80.7616C101.26 81.1089 101.731 81.304 102.222 81.304H105.926C106.417 81.304 106.888 81.1089 107.235 80.7616C107.583 80.4144 107.778 79.9433 107.778 79.4522C107.778 78.961 107.583 78.49 107.235 78.1427C106.888 77.7954 106.417 77.6003 105.926 77.6003Z" fill="white"/>
<path d="M109.804 97.9151C108.705 97.9151 107.631 98.2409 106.718 98.8514C105.804 99.4618 105.092 100.329 104.671 101.345C104.251 102.36 104.141 103.477 104.355 104.554C104.57 105.632 105.099 106.622 105.876 107.399C106.653 108.176 107.643 108.705 108.72 108.919C109.798 109.134 110.915 109.024 111.93 108.603C112.945 108.183 113.813 107.471 114.423 106.557C115.034 105.644 115.36 104.569 115.36 103.471C115.358 101.998 114.772 100.586 113.731 99.5441C112.689 98.5025 111.277 97.9167 109.804 97.9151ZM109.804 105.323C109.438 105.323 109.08 105.214 108.775 105.01C108.471 104.807 108.233 104.518 108.093 104.179C107.953 103.841 107.916 103.469 107.988 103.109C108.059 102.75 108.236 102.42 108.495 102.161C108.754 101.902 109.084 101.726 109.443 101.654C109.802 101.583 110.174 101.62 110.513 101.76C110.851 101.9 111.14 102.137 111.344 102.442C111.547 102.746 111.656 103.104 111.656 103.471C111.655 103.962 111.46 104.432 111.113 104.779C110.766 105.127 110.295 105.322 109.804 105.323Z" fill="white"/>
<path d="M55.9259 97.9151C54.8271 97.9151 53.753 98.2409 52.8394 98.8514C51.9258 99.4618 51.2137 100.329 50.7933 101.345C50.3728 102.36 50.2627 103.477 50.4771 104.554C50.6915 105.632 51.2206 106.622 51.9975 107.399C52.7745 108.176 53.7644 108.705 54.8421 108.919C55.9198 109.134 57.0368 109.024 58.0519 108.603C59.0671 108.183 59.9347 107.471 60.5452 106.557C61.1556 105.644 61.4815 104.569 61.4815 103.471C61.4799 101.998 60.894 100.586 59.8525 99.5441C58.811 98.5025 57.3988 97.9167 55.9259 97.9151ZM55.9259 105.323C55.5597 105.323 55.2016 105.214 54.8971 105.01C54.5925 104.807 54.3552 104.518 54.215 104.179C54.0749 103.841 54.0382 103.469 54.1096 103.109C54.1811 102.75 54.3575 102.42 54.6165 102.161C54.8754 101.902 55.2054 101.726 55.5646 101.654C55.9239 101.583 56.2962 101.62 56.6346 101.76C56.973 101.9 57.2622 102.137 57.4657 102.442C57.6692 102.746 57.7778 103.104 57.7778 103.471C57.7771 103.962 57.5818 104.432 57.2347 104.779C56.8875 105.127 56.4169 105.322 55.9259 105.323Z" fill="white"/>
<path d="M87.4074 81.2485C87.8985 81.2485 88.3696 81.0534 88.7169 80.7061C89.0641 80.3588 89.2592 79.8877 89.2592 79.3966V53.4707C89.2592 52.9795 89.0641 52.5085 88.7169 52.1612C88.3696 51.8139 87.8985 51.6188 87.4074 51.6188C86.9163 51.6188 86.4452 51.8139 86.0979 52.1612C85.7506 52.5085 85.5555 52.9795 85.5555 53.4707V79.3966C85.5555 79.8877 85.7506 80.3588 86.0979 80.7061C86.4452 81.0534 86.9163 81.2485 87.4074 81.2485Z" fill="white"/>
<path d="M80.5288 81.2485C81.02 81.2485 81.491 81.0534 81.8383 80.7061C82.1856 80.3588 82.3807 79.8877 82.3807 79.3966V53.4707C82.3807 52.9795 82.1856 52.5085 81.8383 52.1612C81.491 51.8139 81.02 51.6188 80.5288 51.6188C80.0377 51.6188 79.5667 51.8139 79.2194 52.1612C78.8721 52.5085 78.677 52.9795 78.677 53.4707V79.3966C78.677 79.8877 78.8721 80.3588 79.2194 80.7061C79.5667 81.0534 80.0377 81.2485 80.5288 81.2485Z" fill="white"/>
<path d="M73.6506 81.2485C74.1417 81.2485 74.6127 81.0534 74.96 80.7061C75.3073 80.3588 75.5024 79.8877 75.5024 79.3966V53.4707C75.5024 52.9795 75.3073 52.5085 74.96 52.1612C74.6127 51.8139 74.1417 51.6188 73.6506 51.6188C73.1594 51.6188 72.6884 51.8139 72.3411 52.1612C71.9938 52.5085 71.7987 52.9795 71.7987 53.4707V79.3966C71.7987 79.8877 71.9938 80.3588 72.3411 80.7061C72.6884 81.0534 73.1594 81.2485 73.6506 81.2485Z" fill="white"/>
<path d="M66.772 81.2485C67.2632 81.2485 67.7342 81.0534 68.0815 80.7061C68.4288 80.3588 68.6239 79.8877 68.6239 79.3966V53.4707C68.6239 52.9795 68.4288 52.5085 68.0815 52.1612C67.7342 51.8139 67.2632 51.6188 66.772 51.6188C66.2809 51.6188 65.8099 51.8139 65.4626 52.1612C65.1153 52.5085 64.9202 52.9795 64.9202 53.4707V79.3966C64.9202 79.8877 65.1153 80.3588 65.4626 80.7061C65.8099 81.0534 66.2809 81.2485 66.772 81.2485Z" fill="white"/>
<path d="M59.8946 81.2485C60.3857 81.2485 60.8567 81.0534 61.204 80.7061C61.5513 80.3588 61.7464 79.8877 61.7464 79.3966V53.4707C61.7464 52.9795 61.5513 52.5085 61.204 52.1612C60.8567 51.8139 60.3857 51.6188 59.8946 51.6188C59.4034 51.6188 58.9324 51.8139 58.5851 52.1612C58.2378 52.5085 58.0427 52.9795 58.0427 53.4707V79.3966C58.0427 79.8877 58.2378 80.3588 58.5851 80.7061C58.9324 81.0534 59.4034 81.2485 59.8946 81.2485Z" fill="white"/>
<path d="M53.0162 81.2484C53.5073 81.2484 53.9783 81.0533 54.3256 80.706C54.6729 80.3587 54.868 79.8877 54.868 79.3966V60.5932C54.868 60.1021 54.6729 59.6311 54.3256 59.2838C53.9783 58.9365 53.5073 58.7414 53.0162 58.7414C52.525 58.7414 52.054 58.9365 51.7067 59.2838C51.3594 59.6311 51.1643 60.1021 51.1643 60.5932V79.3966C51.1643 79.8877 51.3594 80.3587 51.7067 80.706C52.054 81.0533 52.525 81.2484 53.0162 81.2484Z" fill="white"/>
<path d="M46.1377 81.2485C46.6289 81.2485 47.0999 81.0534 47.4472 80.7061C47.7945 80.3588 47.9896 79.8878 47.9896 79.3966V66.9807C47.9896 66.4896 47.7945 66.0185 47.4472 65.6712C47.0999 65.3239 46.6289 65.1288 46.1377 65.1288C45.6466 65.1288 45.1756 65.3239 44.8283 65.6712C44.481 66.0185 44.2859 66.4896 44.2859 66.9807V79.3966C44.2859 79.8878 44.481 80.3588 44.8283 80.7061C45.1756 81.0534 45.6466 81.2485 46.1377 81.2485Z" fill="white"/>
<path d="M39.2592 81.2485C39.7503 81.2485 40.2214 81.0534 40.5687 80.7061C40.9159 80.3588 41.1111 79.8878 41.1111 79.3966V73.4296C41.1111 72.9385 40.9159 72.4674 40.5687 72.1202C40.2214 71.7729 39.7503 71.5778 39.2592 71.5778C38.7681 71.5778 38.297 71.7729 37.9497 72.1202C37.6025 72.4674 37.4073 72.9385 37.4073 73.4296V79.3966C37.4073 79.8878 37.6025 80.3588 37.9497 80.7061C38.297 81.0534 38.7681 81.2485 39.2592 81.2485Z" fill="white"/>
</svg>
