<svg width="30" height="21" viewBox="0 0 30 21" fill="none" xmlns="http://www.w3.org/2000/svg">
<path d="M14.9995 8.93561L28.6924 0.608555C28.1418 0.217674 27.4734 0.00436238 26.7852 0H3.21378C2.52564 0.00436238 1.85715 0.217674 1.30664 0.608555L14.9995 8.93561Z" fill="black"/>
<path d="M15.5786 10.9946L15.3964 11.0757H15.3107C15.2121 11.1174 15.1073 11.1448 15 11.1569C14.9111 11.1675 14.8211 11.1675 14.7321 11.1569H14.6464L14.4643 11.0757L0.107143 2.29224C0.038548 2.53722 0.00255504 2.78936 0 3.04279V17.2424C0 18.0494 0.338647 18.8233 0.941443 19.394C1.54424 19.9646 2.3618 20.2852 3.21429 20.2852H26.7857C27.6382 20.2852 28.4558 19.9646 29.0586 19.394C29.6614 18.8233 30 18.0494 30 17.2424V3.04279C29.9974 2.78936 29.9615 2.53722 29.8929 2.29224L15.5786 10.9946Z" fill="black"/>
</svg>
