<svg width="25" height="19" viewBox="0 0 25 19" fill="none" xmlns="http://www.w3.org/2000/svg">
<path d="M12.4998 8.43748L23.9105 1.10713C23.4518 0.763031 22.8947 0.575251 22.3213 0.571411H2.6784C2.10495 0.575251 1.54787 0.763031 1.08911 1.10713L12.4998 8.43748Z" fill="white"/>
<path d="M12.9821 10.25L12.8304 10.3214H12.7589C12.6767 10.3582 12.5894 10.3822 12.5 10.3929C12.4259 10.4022 12.3509 10.4022 12.2768 10.3929H12.2054L12.0536 10.3214L0.0892856 2.58929C0.0321233 2.80495 0.0021292 3.02691 0 3.25001V15.75C0 16.4604 0.282206 17.1417 0.784535 17.644C1.28687 18.1464 1.96817 18.4286 2.67857 18.4286H22.3214C23.0318 18.4286 23.7131 18.1464 24.2155 17.644C24.7178 17.1417 25 16.4604 25 15.75V3.25001C24.9979 3.02691 24.9679 2.80495 24.9107 2.58929L12.9821 10.25Z" fill="white"/>
</svg>
