<svg width="27" height="32" viewBox="0 0 27 32" fill="none" xmlns="http://www.w3.org/2000/svg">
<path d="M13.6767 0.00158691C20.8604 0.00158691 26.6835 5.82462 26.6835 13.0084C26.6835 18.5046 22.8215 24.4943 15.1975 31.0417C14.7736 31.4059 14.2331 31.6059 13.6742 31.6054C13.1153 31.6049 12.5752 31.404 12.1519 31.0391L11.6476 30.6015C4.36118 24.2249 0.669922 18.3818 0.669922 13.0084C0.669922 5.82462 6.49295 0.00158691 13.6767 0.00158691ZM13.6767 2.00263C10.7578 2.00263 7.95844 3.16216 5.89447 5.22613C3.83049 7.29011 2.67096 10.0895 2.67096 13.0084C2.67096 17.6801 6.07007 23.0629 12.9617 29.0927L13.4592 29.5236C13.5197 29.5756 13.5969 29.6043 13.6767 29.6043C13.7565 29.6043 13.8336 29.5756 13.8941 29.5236C21.1192 23.3177 24.6824 17.7908 24.6824 13.0084C24.6824 11.5631 24.3977 10.1319 23.8447 8.79665C23.2916 7.46137 22.4809 6.24811 21.4589 5.22613C20.4369 4.20416 19.2237 3.39348 17.8884 2.84039C16.5531 2.2873 15.122 2.00263 13.6767 2.00263ZM13.6767 8.00575C15.0035 8.00575 16.2759 8.53281 17.2141 9.47098C18.1522 10.4092 18.6793 11.6816 18.6793 13.0084C18.6793 14.3351 18.1522 15.6076 17.2141 16.5457C16.2759 17.4839 15.0035 18.011 13.6767 18.011C12.3499 18.011 11.0775 17.4839 10.1393 16.5457C9.20115 15.6076 8.67409 14.3351 8.67409 13.0084C8.67409 11.6816 9.20115 10.4092 10.1393 9.47098C11.0775 8.53281 12.3499 8.00575 13.6767 8.00575ZM13.6767 10.0068C12.8806 10.0068 12.1172 10.323 11.5543 10.8859C10.9914 11.4488 10.6751 12.2123 10.6751 13.0084C10.6751 13.8044 10.9914 14.5679 11.5543 15.1308C12.1172 15.6937 12.8806 16.0099 13.6767 16.0099C14.4728 16.0099 15.2362 15.6937 15.7991 15.1308C16.362 14.5679 16.6783 13.8044 16.6783 13.0084C16.6783 12.2123 16.362 11.4488 15.7991 10.8859C15.2362 10.323 14.4728 10.0068 13.6767 10.0068Z" fill="black"/>
</svg>
