<svg width="56" height="111" viewBox="0 0 56 111" fill="none" xmlns="http://www.w3.org/2000/svg">
<rect x="0.370117" y="0.211426" width="55.5988" height="110" rx="16.9231" fill="#F5F5F5"/>
<path d="M37.7241 48.2138C37.7241 42.6981 33.2167 38.2153 27.6707 38.2153C22.1247 38.2153 17.6173 42.6981 17.6173 48.2138C17.6173 53.7296 22.1247 58.2124 27.6707 58.2124C33.2167 58.2124 37.7241 53.7296 37.7241 48.2138ZM19.7152 48.2138C19.7152 43.855 23.2879 40.3017 27.6707 40.3017C32.0535 40.3017 35.6262 43.855 35.6262 48.2138C35.6262 52.5727 32.0535 56.1259 27.6707 56.1259C23.2879 56.1259 19.7152 52.5831 19.7152 48.2138Z" fill="black"/>
<path d="M39.334 57.386L41.0892 56.6527C41.5254 56.4667 41.7851 56.0226 41.7228 55.5578L41.2554 51.8393L43.5299 48.8439C43.8103 48.472 43.8103 47.9556 43.5299 47.5837L41.2554 44.5883L41.7228 40.8595C41.7851 40.3947 41.5254 39.9505 41.0892 39.7646L37.61 38.3082L36.1456 34.8479C35.9587 34.4141 35.5121 34.1559 35.0447 34.2179L31.3059 34.6827L28.294 32.4206C28.111 32.2848 27.8888 32.2114 27.6605 32.2114C27.4321 32.2114 27.2099 32.2848 27.0269 32.4206L24.0151 34.6827L20.2762 34.2179C19.8088 34.1559 19.3622 34.4141 19.1753 34.8479L17.7109 38.3082L14.2317 39.7646C13.7955 39.9505 13.5358 40.3947 13.5981 40.8595L14.0655 44.5883L11.791 47.5837C11.6545 47.7657 11.5807 47.9867 11.5807 48.2138C11.5807 48.4409 11.6545 48.6619 11.791 48.8439L14.0655 51.8393L13.5981 55.5578C13.5358 56.0226 13.7955 56.4667 14.2317 56.6527L15.9869 57.386L7.56401 73.3548C7.3563 73.7577 7.429 74.2431 7.74057 74.5737C8.06253 74.8939 8.55066 74.9765 8.9557 74.7699L14.8756 71.7951L15.7272 78.3025C15.7895 78.7569 16.1323 79.1185 16.5788 79.1908C16.6412 79.2011 16.7035 79.2114 16.7658 79.2114C17.1501 79.2114 17.5136 79.0048 17.6901 78.6537L25.8949 63.1393L27.0269 63.9967C27.2139 64.1413 27.432 64.2032 27.6605 64.2032C27.8786 64.2032 28.107 64.1309 28.294 63.9967L29.426 63.1393L37.6308 78.6537C37.8177 79.0048 38.1708 79.2114 38.5551 79.2114C38.6174 79.2114 38.6797 79.2114 38.7421 79.1908C39.1887 79.1081 39.5418 78.7466 39.5937 78.3025L40.4453 71.7951L46.3652 74.7699C46.7703 74.9765 47.2688 74.8939 47.5803 74.5737C47.9023 74.2535 47.975 73.7577 47.7569 73.3548L39.334 57.386ZM17.3889 74.7802L16.7762 70.0805C16.7346 69.75 16.5269 69.4504 16.2257 69.2955C15.9245 69.1405 15.5714 69.1302 15.2599 69.2852L10.9394 71.4543L17.8459 58.388L19.1857 61.5693C19.3726 62.0031 19.8192 62.2614 20.2866 62.1994L24.0254 61.7346L24.2124 61.8689L17.3889 74.7802ZM27.6708 61.8585L26.2272 60.774C26.2168 60.7636 26.1961 60.7533 26.1857 60.743L24.9498 59.8134C24.7628 59.6791 24.5447 59.6068 24.3162 59.6068C24.2747 59.6068 24.2332 59.6068 24.1812 59.6171L20.8059 60.0406L19.4869 56.9212C19.383 56.6733 19.1753 56.4667 18.926 56.3635L15.7895 55.0517L16.2153 51.6947C16.2465 51.4261 16.1738 51.1576 16.0076 50.9407L13.9616 48.2138L16.018 45.5076C16.1842 45.2907 16.2569 45.0221 16.2257 44.7535L15.7999 41.3966L18.9364 40.0848C19.1857 39.9815 19.3934 39.7749 19.4972 39.527L20.8162 36.4076L24.1916 36.8311C24.4616 36.8621 24.7317 36.7898 24.9498 36.6245L27.6708 34.5794L30.3919 36.6245C30.61 36.7898 30.88 36.8621 31.1501 36.8311L34.5254 36.4076L35.8444 39.527C35.9483 39.7749 36.156 39.9815 36.4053 40.0848L39.5418 41.3966L39.1159 44.7535C39.0848 45.0221 39.1575 45.2907 39.3237 45.5076L41.38 48.2138L39.3237 50.92C39.1575 51.1369 39.0848 51.4055 39.1159 51.674L39.5418 55.031L36.4053 56.3428C36.156 56.4461 35.9483 56.6527 35.8444 56.9006L34.5254 60.0303L31.1501 59.6068C30.88 59.5655 30.61 59.6481 30.3919 59.8134L29.156 60.743C29.1456 60.7533 29.1352 60.7636 29.1145 60.774L27.6708 61.8585ZM40.0818 69.2748C39.7806 69.1199 39.4171 69.1302 39.1159 69.2852C38.8148 69.4401 38.607 69.7396 38.5655 70.0702L37.9527 74.7699L31.1293 61.8585L31.3162 61.7243L35.0551 62.1891C35.5225 62.251 35.9691 61.9928 36.156 61.559L37.4958 58.3776L44.4023 71.4439L40.0818 69.2748Z" fill="black"/>
</svg>
