<svg width="56" height="111" viewBox="0 0 56 111" fill="none" xmlns="http://www.w3.org/2000/svg">
<rect x="0.370117" y="0.211426" width="55.5988" height="110" rx="16.9231" fill="#F5F5F5"/>
<path d="M27.6641 56.5448C21.7188 56.5448 16.8813 51.7594 16.8813 45.8781C16.8813 39.9968 21.7188 35.2114 27.6641 35.2114C33.6095 35.2114 38.4469 39.9968 38.4469 45.8781C38.4469 51.7594 33.6095 56.5448 27.6641 56.5448ZM27.6641 37.8781C23.2041 37.8781 19.577 41.4661 19.577 45.8781C19.577 50.2901 23.2041 53.8781 27.6641 53.8781C32.1242 53.8781 35.7512 50.2901 35.7512 45.8781C35.7512 41.4661 32.1242 37.8781 27.6641 37.8781Z" fill="black"/>
<path d="M28.2032 51.4781H27.1249C26.3694 51.4751 25.6349 51.2319 25.0299 50.7844C24.4248 50.3369 23.9813 49.7087 23.7647 48.9927C23.7101 48.8235 23.6902 48.6452 23.7062 48.4683C23.7222 48.2914 23.7738 48.1194 23.8579 47.9624C23.942 47.8055 24.057 47.6668 24.1961 47.5544C24.3352 47.4421 24.4955 47.3583 24.6678 47.3081C24.8401 47.2579 25.0207 47.2423 25.1992 47.2621C25.3776 47.282 25.5502 47.3369 25.7069 47.4236C25.8636 47.5104 26.0012 47.6272 26.1116 47.7673C26.2221 47.9074 26.303 48.0679 26.3499 48.2394C26.451 48.5767 26.7704 48.8127 27.1249 48.8127H28.2032C28.4178 48.8127 28.6237 48.7284 28.7755 48.5782C28.9273 48.4281 29.0126 48.2244 29.0126 48.0121C29.0126 47.7997 28.9273 47.5961 28.7755 47.4459C28.6237 47.2958 28.4178 47.2114 28.2032 47.2114H27.1249C25.1921 47.2114 23.6205 45.6554 23.6205 43.7447C23.6205 41.8341 25.1921 40.2781 27.1249 40.2781H28.2032C29.7141 40.2781 31.0485 41.2301 31.527 42.6487C31.5857 42.8155 31.6104 42.9921 31.5995 43.1684C31.5887 43.3446 31.5426 43.517 31.4639 43.6755C31.3852 43.834 31.2754 43.9754 31.141 44.0916C31.0066 44.2078 30.8501 44.2964 30.6808 44.3523C30.5115 44.4082 30.3326 44.4302 30.1546 44.4172C29.9766 44.4041 29.803 44.3562 29.6438 44.2763C29.4847 44.1963 29.3431 44.0859 29.2275 43.9514C29.1118 43.8169 29.0243 43.661 28.9701 43.4927C28.917 43.3331 28.8142 43.1941 28.6765 43.0957C28.5387 42.9973 28.3731 42.9445 28.2032 42.9447H27.1249C26.9104 42.9447 26.7047 43.029 26.553 43.1791C26.4014 43.3291 26.3162 43.5326 26.3162 43.7447C26.3162 43.9569 26.4014 44.1604 26.553 44.3104C26.7047 44.4605 26.9104 44.5447 27.1249 44.5447H28.2032C30.136 44.5447 31.7076 46.1007 31.7076 48.0114C31.7076 49.9221 30.136 51.4781 28.2032 51.4781Z" fill="black"/>
<path d="M27.6641 41.8781C27.2989 41.8781 26.9619 41.7314 26.7072 41.4914C26.6533 41.4248 26.5859 41.3581 26.5454 41.2781C26.492 41.2101 26.4509 41.1334 26.4241 41.0514C26.3854 40.9757 26.3577 40.8949 26.3419 40.8114C26.3298 40.7181 26.3163 40.6381 26.3163 40.5448C26.3163 40.1981 26.4632 39.8514 26.7072 39.5981C27.2059 39.1048 28.1089 39.1048 28.6211 39.5981C28.8637 39.8514 29.012 40.1981 29.012 40.5448C29.012 40.6381 28.9985 40.7181 28.9837 40.8114C28.9696 40.8951 28.9423 40.9761 28.9028 41.0514C28.8755 41.1332 28.8345 41.2098 28.7815 41.2781C28.7276 41.3581 28.6737 41.4248 28.6198 41.4914C28.365 41.7314 28.0146 41.8781 27.6641 41.8781ZM27.6641 52.5448C27.2989 52.5448 26.9619 52.3981 26.7072 52.1581C26.6533 52.0914 26.5859 52.0248 26.5454 51.9448C26.492 51.8768 26.4509 51.8001 26.4241 51.7181C26.3854 51.6424 26.3577 51.5616 26.3419 51.4781C26.3298 51.3848 26.3163 51.3048 26.3163 51.2114C26.3163 50.8648 26.4632 50.5181 26.7072 50.2648C27.2059 49.7714 28.1089 49.7714 28.6211 50.2648C28.8637 50.5181 29.012 50.8648 29.012 51.2114C29.012 51.3048 28.9985 51.3848 28.9837 51.4781C28.9696 51.5618 28.9423 51.6428 28.9028 51.7181C28.8755 51.7998 28.8345 51.8765 28.7815 51.9448C28.7276 52.0248 28.6737 52.0914 28.6198 52.1581C28.365 52.3981 28.0146 52.5448 27.6641 52.5448ZM30.3598 75.2114H8.79426C8.43679 75.2114 8.09396 75.071 7.84119 74.8209C7.58842 74.5709 7.44641 74.2317 7.44641 73.8781V61.8781C7.44641 61.5248 7.58794 61.1848 7.84133 60.9354C8.15673 60.6221 11.0223 57.8781 14.1857 57.8781C16.8059 57.8781 20.1863 59.8368 21.3225 60.5448H27.6641C28.2541 60.5457 28.8367 60.6741 29.3713 60.921C29.9058 61.1679 30.3794 61.5275 30.7587 61.9744C31.1381 62.4213 31.4142 62.9449 31.5676 63.5084C31.7211 64.0719 31.7482 64.6618 31.647 65.2368L42.2829 60.8528C42.8973 60.5989 43.5655 60.4993 44.2282 60.5628C44.8909 60.6263 45.5275 60.8509 46.0811 61.2168C46.6356 61.5814 47.0902 62.0761 47.4044 62.6568C47.7186 63.2375 47.8827 63.8861 47.8819 64.5448C47.8819 64.7778 47.8202 65.0069 47.7029 65.209C47.5856 65.4111 47.4168 65.5793 47.2133 65.6968L31.0392 75.0301C30.8329 75.1488 30.5985 75.2114 30.3598 75.2114ZM10.1421 72.5448H29.9946L45.0096 63.8808C44.9049 63.7022 44.7601 63.5498 44.5864 63.4354C44.4026 63.312 44.1904 63.2361 43.9692 63.2149C43.7481 63.1937 43.5251 63.2278 43.3207 63.3141L30.8801 68.4421C30.7152 68.5098 30.5384 68.5447 30.3598 68.5448H19.577C19.2196 68.5448 18.8767 68.4043 18.624 68.1542C18.3712 67.9042 18.2292 67.5651 18.2292 67.2114C18.2292 66.8578 18.3712 66.5187 18.624 66.2686C18.8767 66.0186 19.2196 65.8781 19.577 65.8781H27.6641C28.0112 65.8627 28.3389 65.7156 28.579 65.4672C28.819 65.2188 28.953 64.8884 28.953 64.5448C28.953 64.2011 28.819 63.8707 28.579 63.6223C28.3389 63.374 28.0112 63.2268 27.6641 63.2114H20.9249C20.6594 63.2114 20.3979 63.1328 20.1768 62.9888C19.1457 62.3088 16.0551 60.5448 14.1857 60.5448C12.7165 60.5448 11.0223 61.7181 10.1421 62.4634V72.5448Z" fill="black"/>
</svg>
