<svg width="160" height="161" viewBox="0 0 160 161" fill="none" xmlns="http://www.w3.org/2000/svg">
<path d="M129.366 102.383C129.574 102.234 129.757 101.987 129.835 101.689C130.017 101.343 130.043 101.021 129.939 100.748C129.939 99.7331 129.626 98.8417 129.314 97.8017C128.871 96.2416 128.48 94.6815 128.011 93.1463C127.516 91.5367 126.214 90.9919 124.729 90.769L119.884 53.0554C119.858 52.7583 119.832 52.4859 119.779 52.1887L119.753 52.0154C119.102 49.1924 116.497 47.2114 113.449 47.2114C110.323 47.2114 107.692 49.341 107.119 52.1887L91.7233 78.5363L88.8317 63.0596C88.5712 61.6976 87.3468 60.7319 85.914 60.7319H68.5385C67.1318 60.7319 65.9074 61.6728 65.6209 62.9853L63.094 74.7971H53.0646V73.138C53.0646 71.8999 52.1007 70.8846 50.8764 70.6865C50.8764 68.5321 50.8764 66.353 50.8764 64.1986C50.8764 61.7967 48.584 60.8062 46.7604 59.4194C45.1193 58.1813 42.8008 60.3604 44.442 61.6233C45.484 62.4157 46.552 63.2329 47.594 64.0253C47.594 66.254 47.594 68.4578 47.594 70.6865C46.3436 70.8846 45.4058 71.8999 45.4058 73.138V74.7971H38.1899C35.7672 74.7971 33.7874 76.6791 33.7874 78.982V92.4777C33.7874 94.7806 35.7672 96.6626 38.1899 96.6626H43.947C43.947 97.3559 43.947 98.0245 43.947 98.7179H38.3983C34.3084 98.6683 31 101.838 31 105.701C31 109.589 34.3084 112.734 38.3983 112.734H93.1039C97.1938 112.734 100.502 109.589 100.502 105.701C100.502 101.813 97.1938 98.6683 93.1039 98.6683H86.6435C86.6435 97.975 86.6435 97.3064 86.6435 96.613H90.6031C92.0359 96.613 93.2863 95.9692 94.0938 94.9539L96.4644 94.2853C98.0014 93.8644 99.2257 92.7996 99.851 91.3881L112.251 63.1091L117.253 90.0014C115.924 90.0262 114.752 90.3728 114.1 91.6357C112.902 93.9634 111.99 96.4645 110.922 98.8417C109.672 101.665 108.109 104.537 107.145 107.459C107.093 107.459 107.041 107.459 107.015 107.459C106.624 107.385 106.051 107.434 105.66 107.459C104.097 107.583 103.238 108.474 102.69 109.836C101.206 113.526 105.816 113.204 108.135 113.204C111.73 113.204 115.325 113.204 118.894 113.204C120.014 113.204 121.108 113.328 121.994 112.56C122.827 111.842 123.426 110.678 124.052 109.812C125.849 107.335 127.595 104.859 129.366 102.383ZM126.709 100.724C126.709 100.748 126.709 100.773 126.709 100.798C126.709 100.798 126.709 100.798 126.709 100.823C126.709 100.897 126.683 100.897 126.709 100.724ZM113.475 50.3068C114.934 50.3068 116.211 51.2477 116.549 52.5849L116.575 52.6592C116.627 52.8573 116.653 53.0307 116.653 53.2288V53.2535V53.3278C116.653 54.9869 115.247 56.3241 113.501 56.3241C113.371 56.3241 113.267 56.3241 113.163 56.2993C111.548 56.126 110.349 54.8383 110.349 53.3031C110.297 51.6439 111.73 50.3068 113.475 50.3068ZM89.1703 82.4983H81.1989L79.5317 63.8272H85.6796L89.1703 82.4983ZM68.799 63.8024H76.2233L77.8905 82.4735H75.025C74.8948 82.4735 74.7385 82.424 74.6343 82.3497L66.2461 75.7381L68.799 63.8024ZM48.6882 73.7323H49.8083V74.7723H48.6882V73.7323ZM86.9561 101.788C86.1745 102.903 85.7056 104.265 85.7056 105.701C85.7056 107.137 86.1745 108.499 86.9561 109.613H81.9544C82.6057 108.895 82.9964 107.954 82.9964 106.914C82.9964 104.636 81.0426 102.754 78.62 102.754C76.2233 102.754 74.2435 104.611 74.2435 106.914C74.2435 107.93 74.6343 108.871 75.2855 109.613H69.0334C69.6847 108.895 70.0755 107.954 70.0755 106.914C70.0755 104.636 68.1217 102.754 65.699 102.754C63.3024 102.754 61.3226 104.611 61.3226 106.914C61.3226 107.93 61.7133 108.871 62.3646 109.613H56.1125C56.7638 108.895 57.1545 107.954 57.1545 106.914C57.1545 104.636 55.2007 102.754 52.7781 102.754C50.3814 102.754 48.4016 104.611 48.4016 106.914C48.4016 107.93 48.7924 108.871 49.4436 109.613H44.5462C45.3277 108.499 45.7966 107.137 45.7966 105.701C45.7966 104.24 45.3277 102.903 44.5462 101.788H86.9561ZM77.5519 106.939C77.5519 106.37 78.0469 105.899 78.646 105.899C79.2452 105.899 79.7401 106.37 79.7401 106.939C79.7401 107.509 79.2452 107.979 78.646 107.979C78.0469 107.954 77.5519 107.509 77.5519 106.939ZM64.657 106.939C64.657 106.37 65.152 105.899 65.7511 105.899C66.3503 105.899 66.8452 106.37 66.8452 106.939C66.8452 107.509 66.3503 107.979 65.7511 107.979C65.152 107.954 64.657 107.509 64.657 106.939ZM51.7881 106.939C51.7881 106.37 52.2831 105.899 52.8823 105.899C53.4814 105.899 53.9764 106.37 53.9764 106.939C53.9764 107.509 53.4814 107.979 52.8823 107.979C52.257 107.954 51.7881 107.509 51.7881 106.939ZM34.2823 105.701C34.2823 103.547 36.1319 101.788 38.3983 101.788C40.6647 101.788 42.5142 103.547 42.5142 105.701C42.5142 107.855 40.6647 109.613 38.3983 109.613C36.1319 109.638 34.2823 107.88 34.2823 105.701ZM97.2199 105.701C97.2199 107.855 95.3703 109.613 93.1039 109.613C90.8376 109.613 88.988 107.855 88.988 105.701C88.988 103.547 90.8376 101.788 93.1039 101.788C95.3703 101.788 97.2199 103.547 97.2199 105.701ZM83.3611 98.6683H47.2293C47.2293 97.975 47.2293 97.3064 47.2293 96.613H83.3611C83.3611 97.3064 83.3611 97.9998 83.3611 98.6683ZM91.7233 92.4529C91.7233 93.0224 91.2283 93.4929 90.6291 93.4929H38.1899C37.5907 93.4929 37.0958 93.0224 37.0958 92.4529V78.9572C37.0958 78.3877 37.5907 77.9172 38.1899 77.9172H45.4058V77.9667H53.0907V77.9172H63.615C63.7452 77.9172 63.9015 77.9667 64.0057 78.041L72.5763 84.7765C73.2796 85.3212 74.1654 85.6184 75.0511 85.6184H91.1241C91.4628 85.6184 91.7233 85.866 91.7233 86.1879V92.4529ZM96.8291 90.2243C96.5947 90.769 96.1258 91.1652 95.5527 91.3138L95.0316 91.4624V86.1879C95.0316 84.7765 94.198 83.5383 92.9476 82.9193L108.187 56.8194C108.812 57.6613 109.62 58.3546 110.61 58.8004L96.8291 90.2243ZM115.09 59.2213C115.221 59.1966 115.325 59.1718 115.455 59.1223C115.559 59.0975 115.637 59.048 115.716 59.0232C115.82 58.9737 115.95 58.949 116.054 58.8994C116.132 58.8747 116.237 58.8251 116.315 58.7756C116.419 58.7261 116.523 58.6766 116.627 58.627C116.706 58.5775 116.784 58.528 116.862 58.4785C116.966 58.4289 117.07 58.3546 117.148 58.3051C117.174 58.2804 117.2 58.2556 117.253 58.2556L121.395 90.4471L121.03 90.4224C120.9 90.3976 120.795 90.3976 120.665 90.3728L114.882 59.2956C114.96 59.2709 115.038 59.2461 115.09 59.2213ZM120.431 109.341C120.326 109.49 120.066 109.762 119.91 109.985C119.206 109.911 117.617 110.084 117.409 110.084C115.794 110.084 114.205 110.084 112.59 110.084C111.417 110.084 110.271 110.084 109.099 110.084C109.437 109.861 109.75 109.514 110.011 109.019C110.922 107.335 111.574 105.453 112.329 103.72C113.579 100.897 114.804 98.0493 116.054 95.2263C116.341 94.5825 116.784 93.8644 117.018 93.171C117.07 93.171 117.148 93.171 117.2 93.1958C117.513 93.3444 118.086 93.3196 118.529 93.3444L124.208 93.9139C124.364 93.9387 124.547 93.9634 124.729 93.9882C124.911 94.9539 125.719 97.0588 125.823 97.4054C126.032 98.1731 126.266 98.9407 126.474 99.7331C126.553 100.006 126.657 100.278 126.709 100.55C126.709 100.575 126.709 100.6 126.709 100.625C125.458 102.358 124.234 104.116 122.984 105.85C122.124 106.989 121.29 108.152 120.431 109.341Z" fill="white"/>
<circle cx="80" cy="80.2114" r="77.5" stroke="white" stroke-width="5"/>
</svg>
