<svg width="56" height="111" viewBox="0 0 56 111" fill="none" xmlns="http://www.w3.org/2000/svg">
<rect x="0.370117" y="0.211426" width="55.5988" height="110" rx="16.9231" fill="#F5F5F5"/>
<path d="M47.7188 52.081L42.5013 46.2359C42.4401 46.1673 42.3648 46.1125 42.2805 46.0749C42.1961 46.0373 42.1047 46.0179 42.0122 46.0179H33.5338V40.8566C33.5338 40.6855 33.4651 40.5214 33.3428 40.4004C33.2205 40.2794 33.0546 40.2114 32.8816 40.2114H8.0986C7.92563 40.2114 7.75974 40.2794 7.63743 40.4004C7.51512 40.5214 7.44641 40.6855 7.44641 40.8566V66.0179C7.44641 66.189 7.51512 66.3531 7.63743 66.4741C7.75974 66.5951 7.92563 66.663 8.0986 66.663H10.753C10.9107 67.91 11.5233 69.0571 12.4757 69.8888C13.4281 70.7204 14.6548 71.1794 15.9251 71.1794C17.1955 71.1794 18.4222 70.7204 19.3746 69.8888C20.327 69.0571 20.9396 67.91 21.0973 66.663H34.8838C35.0415 67.91 35.6541 69.0571 36.6065 69.8888C37.5589 70.7204 38.7856 71.1794 40.056 71.1794C41.3264 71.1794 42.553 70.7204 43.5054 69.8888C44.4578 69.0571 45.0705 67.91 45.2281 66.663H47.2297C47.4027 66.663 47.5685 66.5951 47.6909 66.4741C47.8132 66.3531 47.8819 66.189 47.8819 66.0179V52.5082C47.8818 52.3509 47.8239 52.1991 47.7188 52.081ZM16.577 41.5017H24.4032V50.3239L20.6691 49.2686C20.5521 49.2354 20.4281 49.2354 20.3111 49.2686L16.577 50.3239V41.5017ZM15.9248 69.8888C15.1509 69.8888 14.3943 69.6618 13.7508 69.2365C13.1073 68.8111 12.6057 68.2066 12.3096 67.4992C12.0134 66.7919 11.9359 66.0136 12.0869 65.2627C12.2379 64.5118 12.6106 63.8221 13.1578 63.2807C13.7051 62.7393 14.4023 62.3707 15.1614 62.2213C15.9205 62.0719 16.7073 62.1486 17.4223 62.4416C18.1373 62.7346 18.7485 63.2307 19.1784 63.8673C19.6084 64.5039 19.8379 65.2523 19.8379 66.0179C19.8368 67.0442 19.4241 68.0281 18.6905 68.7538C17.9569 69.4795 16.9623 69.8877 15.9248 69.8888ZM32.2294 46.663V65.3727H21.1015C21.0917 65.2953 21.0748 65.2203 21.0616 65.1439C21.0499 65.0763 21.0406 65.0079 21.0262 64.9412C21.0036 64.8363 20.9746 64.7341 20.9456 64.6315C20.9301 64.5767 20.9179 64.5205 20.9006 64.4664C20.8514 64.3122 20.7954 64.1611 20.7326 64.0132C20.7287 64.0041 20.7239 63.9956 20.7199 63.9865C20.6591 63.8469 20.5925 63.7104 20.5202 63.577C20.4935 63.5281 20.4627 63.4819 20.4344 63.4339C20.3812 63.3436 20.3281 63.2528 20.2696 63.1658C20.2335 63.1121 20.1937 63.0614 20.1557 63.0092C20.0994 62.9318 20.0433 62.8544 19.9828 62.7807C19.9395 62.7277 19.8932 62.6775 19.8479 62.6259C19.7871 62.5573 19.7263 62.489 19.662 62.4237C19.6127 62.3735 19.5613 62.3257 19.5101 62.2776C19.4443 62.2159 19.3781 62.155 19.3092 62.097C19.2547 62.0509 19.199 62.0067 19.1426 61.963C19.072 61.9079 19.0003 61.8546 18.9268 61.8032C18.868 61.7621 18.8085 61.7223 18.7481 61.6837C18.6722 61.6351 18.595 61.589 18.5165 61.5443C18.4542 61.5088 18.3918 61.4739 18.3279 61.441C18.2467 61.3992 18.1638 61.3606 18.08 61.3228C18.0152 61.2936 17.9508 61.2641 17.8844 61.2375C17.797 61.2023 17.7077 61.1714 17.618 61.1407C17.5522 61.1183 17.4872 61.0947 17.4202 61.0748C17.3249 61.0465 17.2276 61.0237 17.1301 61.0008C17.0657 60.9857 17.0024 60.9686 16.9371 60.9557C16.8282 60.9343 16.7171 60.9199 16.6058 60.9055C16.5496 60.8981 16.4945 60.8876 16.4377 60.882C16.269 60.8659 16.098 60.8566 15.9248 60.8566C15.7516 60.8566 15.5806 60.8659 15.4116 60.8824C15.3548 60.8879 15.2997 60.8985 15.2435 60.9059C15.1322 60.9203 15.0211 60.9347 14.9122 60.9561C14.8469 60.969 14.7836 60.9863 14.7192 61.0012C14.6217 61.0241 14.5244 61.0469 14.4291 61.0752C14.3621 61.095 14.2971 61.1187 14.2313 61.1411C14.1416 61.1717 14.0523 61.2025 13.9649 61.2379C13.8987 61.2645 13.8345 61.294 13.7693 61.3232C13.6857 61.361 13.6028 61.3996 13.5214 61.4414C13.4575 61.4744 13.3951 61.5093 13.3328 61.5447C13.2546 61.5894 13.1771 61.6355 13.1012 61.6841C13.0407 61.7228 12.9811 61.7626 12.9225 61.8036C12.849 61.8552 12.7773 61.9083 12.7067 61.9634C12.6503 62.0072 12.5946 62.0513 12.5401 62.0974C12.4712 62.1554 12.405 62.2163 12.3392 62.278C12.288 62.3261 12.2366 62.3739 12.1873 62.4241C12.123 62.4894 12.0622 62.5577 12.0014 62.6263C11.9557 62.6779 11.9098 62.7279 11.8665 62.7811C11.806 62.8551 11.7499 62.9324 11.6936 63.0096C11.6556 63.0618 11.6158 63.1125 11.5797 63.1662C11.521 63.2532 11.4681 63.3438 11.4149 63.4343C11.3867 63.4823 11.3558 63.5285 11.3291 63.5774C11.2566 63.7105 11.19 63.847 11.1294 63.9869C11.1255 63.9959 11.1206 64.0045 11.1167 64.0136C11.0536 64.1612 10.9976 64.3122 10.9487 64.4668C10.9314 64.5208 10.9192 64.577 10.9037 64.6319C10.8748 64.7343 10.8457 64.8365 10.8231 64.9416C10.8087 65.0083 10.7994 65.0767 10.7877 65.1443C10.7746 65.2207 10.7576 65.2957 10.7478 65.3731H8.75078V41.5017H15.2726V51.1792C15.2727 51.279 15.2961 51.3775 15.3411 51.4668C15.3861 51.5562 15.4515 51.6339 15.532 51.6941C15.6126 51.7542 15.7062 51.795 15.8054 51.8133C15.9046 51.8316 16.0067 51.8268 16.1038 51.7994L20.4901 50.5598L24.8764 51.7994C24.9735 51.8268 25.0756 51.8316 25.1748 51.8133C25.274 51.795 25.3676 51.7542 25.4482 51.6941C25.5287 51.6339 25.5941 51.5562 25.6391 51.4668C25.6841 51.3775 25.7076 51.279 25.7076 51.1792V41.5017H32.2294V46.663ZM40.0557 69.8888C39.2817 69.8888 38.5252 69.6618 37.8816 69.2365C37.2381 68.8111 36.7366 68.2066 36.4404 67.4992C36.1442 66.7919 36.0667 66.0136 36.2177 65.2627C36.3687 64.5118 36.7414 63.8221 37.2887 63.2807C37.8359 62.7393 38.5332 62.3707 39.2922 62.2213C40.0513 62.0719 40.8381 62.1486 41.5531 62.4416C42.2682 62.7346 42.8793 63.2307 43.3093 63.8673C43.7393 64.5039 43.9688 65.2523 43.9688 66.0179C43.9676 67.0442 43.555 68.0281 42.8214 68.7538C42.0878 69.4795 41.0931 69.8877 40.0557 69.8888ZM46.5775 65.3727H45.2324C45.2226 65.2953 45.2056 65.2203 45.1925 65.1439C45.1807 65.0763 45.1715 65.0079 45.157 64.9412C45.1345 64.8363 45.1054 64.7341 45.0764 64.6315C45.061 64.5767 45.0487 64.5205 45.0314 64.4664C44.9823 64.3122 44.9263 64.1611 44.8634 64.0132C44.8595 64.0041 44.8547 63.9956 44.8508 63.9865C44.7899 63.8469 44.7233 63.7104 44.651 63.577C44.6243 63.5281 44.5935 63.4819 44.5653 63.4339C44.512 63.3436 44.4589 63.2528 44.4004 63.1658C44.3643 63.1121 44.3245 63.0614 44.2865 63.0092C44.2302 62.9318 44.1741 62.8544 44.1137 62.7807C44.0704 62.7277 44.0241 62.6775 43.9787 62.6259C43.918 62.5573 43.8571 62.489 43.7929 62.4237C43.7436 62.3735 43.6922 62.3257 43.6409 62.2776C43.5752 62.2159 43.5089 62.155 43.44 62.097C43.3856 62.0509 43.3298 62.0067 43.2734 61.963C43.2028 61.9079 43.1312 61.8546 43.0577 61.8032C42.9989 61.7621 42.9393 61.7223 42.879 61.6837C42.803 61.6351 42.7258 61.589 42.6473 61.5443C42.585 61.5088 42.5226 61.4739 42.4587 61.441C42.3775 61.3992 42.2946 61.3606 42.2109 61.3228C42.146 61.2936 42.0816 61.2641 42.0152 61.2375C41.9278 61.2023 41.8385 61.1714 41.7489 61.1407C41.683 61.1183 41.618 61.0947 41.551 61.0748C41.4558 61.0465 41.3584 61.0237 41.261 61.0008C41.1966 60.9857 41.1333 60.9686 41.068 60.9557C40.9591 60.9343 40.8479 60.9199 40.7367 60.9055C40.6804 60.8981 40.6253 60.8876 40.5685 60.882C40.3999 60.8659 40.2289 60.8566 40.0557 60.8566C39.8824 60.8566 39.7114 60.8659 39.5424 60.8824C39.4856 60.8879 39.4305 60.8985 39.3743 60.9059C39.2631 60.9203 39.1519 60.9347 39.043 60.9561C38.9778 60.969 38.9144 60.9863 38.85 61.0012C38.7526 61.0241 38.6552 61.0469 38.5599 61.0752C38.493 61.095 38.4279 61.1187 38.3621 61.1411C38.2724 61.1717 38.1832 61.2025 38.0958 61.2379C38.0296 61.2645 37.9653 61.294 37.9001 61.3232C37.8165 61.361 37.7336 61.3996 37.6523 61.4414C37.5884 61.4744 37.526 61.5093 37.4637 61.5447C37.3854 61.5894 37.3079 61.6355 37.232 61.6841C37.1715 61.7228 37.1119 61.7626 37.0533 61.8036C36.9798 61.8552 36.9081 61.9083 36.8376 61.9634C36.7812 62.0072 36.7254 62.0513 36.6709 62.0974C36.6021 62.1554 36.5358 62.2163 36.4701 62.278C36.4188 62.3261 36.3674 62.3739 36.3181 62.4241C36.2539 62.4894 36.193 62.5577 36.1322 62.6263C36.0869 62.6779 36.0409 62.7279 35.9973 62.7811C35.9368 62.8551 35.8808 62.9324 35.8245 63.0096C35.7865 63.0618 35.7467 63.1125 35.7105 63.1662C35.6518 63.2532 35.5989 63.3438 35.5457 63.4343C35.5175 63.4823 35.4866 63.5285 35.46 63.5774C35.3874 63.7105 35.3209 63.847 35.2602 63.9869C35.2563 63.9959 35.2515 64.0045 35.2476 64.0136C35.1844 64.1612 35.1284 64.3122 35.0795 64.4668C35.0623 64.5208 35.05 64.577 35.0345 64.6319C35.0056 64.7343 34.9765 64.8365 34.9539 64.9416C34.9395 65.0083 34.9303 65.0767 34.9185 65.1443C34.9055 65.2207 34.8884 65.2957 34.8786 65.3731H33.5338V47.3082H36.1844L36.796 56.3833C36.807 56.5466 36.8804 56.6998 37.0012 56.8116C37.1221 56.9234 37.2814 56.9857 37.4469 56.9856H46.5775V65.3727ZM46.5775 55.6953H38.057L37.492 47.3082H41.7181L46.5775 52.7524V55.6953Z" fill="black" stroke="black"/>
</svg>
