<svg width="33" height="33" viewBox="0 0 33 33" fill="none" xmlns="http://www.w3.org/2000/svg">
<path fill-rule="evenodd" clip-rule="evenodd" d="M23.6552 19.648C23.2614 19.4511 21.3308 18.5023 20.9714 18.3702C20.612 18.2394 20.3503 18.1746 20.0874 18.5684C19.8257 18.9595 19.0738 19.8449 18.8452 20.1065C18.6153 20.3695 18.3867 20.4012 17.9942 20.2056C17.6018 20.0074 16.3358 19.5938 14.836 18.2565C13.6692 17.2153 12.8803 15.9295 12.6517 15.5357C12.4231 15.1433 12.6266 14.9305 12.8235 14.7349C13.0006 14.5592 13.2159 14.2764 13.4128 14.0478C13.6097 13.8179 13.6745 13.654 13.8053 13.391C13.9374 13.1294 13.8714 12.9008 13.7723 12.7039C13.6745 12.507 12.8896 10.5738 12.5618 9.78751C12.2434 9.02241 11.9196 9.1268 11.6791 9.11359C11.4492 9.10301 11.1876 9.10037 10.9259 9.10037C10.6643 9.10037 10.2388 9.19816 9.87935 9.59194C9.5186 9.98441 8.50506 10.9345 8.50506 12.8678C8.50506 14.7997 9.91106 16.6669 10.108 16.9298C10.3048 17.1915 12.8763 21.1584 16.8155 22.8591C17.7537 23.2634 18.4845 23.5052 19.054 23.685C19.9949 23.9849 20.8511 23.9426 21.5277 23.8409C22.2809 23.7286 23.8508 22.8908 24.1785 21.9737C24.5049 21.0566 24.5049 20.2704 24.4071 20.1065C24.3093 19.9427 24.0477 19.8449 23.6539 19.648H23.6552ZM16.4904 29.4305H16.4852C14.1455 29.4309 11.8488 28.802 9.83574 27.6096L9.36003 27.3268L4.41525 28.6244L5.73535 23.8039L5.42482 23.3097C4.11679 21.2276 3.42457 18.8178 3.42814 16.359C3.43079 9.15719 9.28999 3.29799 16.4957 3.29799C19.9843 3.29799 23.2641 4.65906 25.7299 7.12748C26.9461 8.33868 27.91 9.77901 28.566 11.3652C29.222 12.9513 29.5569 14.6518 29.5514 16.3682C29.5488 23.57 23.6896 29.4305 16.4904 29.4305ZM27.6063 5.25238C26.1503 3.78681 24.418 2.62477 22.5097 1.83358C20.6013 1.0424 18.555 0.637802 16.4891 0.643243C7.82849 0.643243 0.777364 7.69305 0.774721 16.3576C0.773399 19.1274 1.49622 21.831 2.87182 24.2135L0.642578 32.3575L8.97285 30.1718C11.2772 31.4274 13.8596 32.0852 16.4838 32.0853H16.4904C25.1511 32.0853 32.2022 25.0355 32.2048 16.3695C32.2112 14.3045 31.8081 12.2587 31.0188 10.3505C30.2294 8.44226 29.0696 6.70948 27.6063 5.25238Z" fill="black"/>
</svg>
