<svg width="26" height="25" viewBox="0 0 26 25" fill="none" xmlns="http://www.w3.org/2000/svg">
<path fill-rule="evenodd" clip-rule="evenodd" d="M19.1334 15.1175C18.8215 14.9615 17.2923 14.21 17.0076 14.1053C16.7229 14.0017 16.5157 13.9504 16.3074 14.2623C16.1002 14.5722 15.5046 15.2734 15.3235 15.4807C15.1414 15.689 14.9603 15.7141 14.6495 15.5592C14.3386 15.4022 13.3359 15.0746 12.1479 14.0153C11.2237 13.1905 10.5988 12.1721 10.4177 11.8602C10.2367 11.5493 10.3979 11.3808 10.5538 11.2259C10.6941 11.0867 10.8647 10.8627 11.0206 10.6816C11.1766 10.4995 11.2279 10.3697 11.3315 10.1614C11.4362 9.95421 11.3838 9.77313 11.3053 9.61717C11.2279 9.46122 10.6061 7.92993 10.3466 7.30715C10.0943 6.70113 9.83788 6.78381 9.64738 6.77335C9.46526 6.76497 9.25802 6.76288 9.05078 6.76288C8.84353 6.76288 8.5065 6.84033 8.22181 7.15224C7.93606 7.46311 7.13326 8.21567 7.13326 9.74696C7.13326 11.2772 8.24693 12.7562 8.40288 12.9645C8.55884 13.1717 10.5957 16.3138 13.7158 17.6609C14.459 17.9812 15.0378 18.1727 15.4889 18.3151C16.2341 18.5527 16.9124 18.5192 17.4483 18.4386C18.0449 18.3496 19.2884 17.686 19.5479 16.9596C19.8065 16.2332 19.8065 15.6105 19.729 15.4807C19.6515 15.3509 19.4443 15.2734 19.1324 15.1175H19.1334ZM13.4583 22.866H13.4542C11.6009 22.8664 9.78175 22.3682 8.18727 21.4237L7.81046 21.1997L3.89379 22.2276L4.93942 18.4093L4.69345 18.0178C3.65738 16.3686 3.10909 14.4599 3.11192 12.5123C3.11401 6.80789 7.75499 2.16691 13.4625 2.16691C16.2258 2.16691 18.8236 3.24499 20.7767 5.20019C21.7401 6.15955 22.5036 7.30042 23.0232 8.55678C23.5428 9.81314 23.8081 11.1601 23.8037 12.5196C23.8016 18.224 19.1607 22.866 13.4583 22.866ZM22.263 3.71495C21.1098 2.5541 19.7376 1.63366 18.2261 1.00698C16.7145 0.380294 15.0936 0.0598204 13.4573 0.0641298C6.59736 0.0641298 1.01228 5.64817 1.01019 12.5112C1.00914 14.7051 1.58167 16.8466 2.67127 18.7338L0.905518 25.1844L7.50379 23.4532C9.32906 24.4477 11.3745 24.9688 13.4531 24.9688H13.4583C20.3183 24.9688 25.9034 19.3848 25.9055 12.5207C25.9105 10.885 25.5912 9.26455 24.966 7.75307C24.3408 6.2416 23.4221 4.86909 22.263 3.71495Z" fill="white"/>
</svg>
